<?xml version="1.0" encoding="UTF-8"?><svg id="Layer_1" xmlns="http://www.w3.org/2000/svg" xmlns:xlink="http://www.w3.org/1999/xlink" viewBox="0 0 865.97 777"><defs><style>.cls-1{fill:url(#linear-gradient-2);}.cls-2{fill:#1e2a50;}.cls-2,.cls-3{stroke-width:2px;}.cls-2,.cls-3,.cls-4,.cls-5{stroke:#1e2a50;stroke-miterlimit:10;}.cls-6{fill:url(#linear-gradient-10);}.cls-7{fill:url(#linear-gradient-4);}.cls-8{fill:url(#linear-gradient-3);}.cls-3{fill:none;}.cls-9{fill:url(#linear-gradient-8);}.cls-10{fill:url(#linear-gradient-7);}.cls-11{fill:url(#linear-gradient-9);}.cls-4{fill:url(#linear-gradient-6);}.cls-4,.cls-5{stroke-width:3px;}.cls-12{fill:url(#linear-gradient);}.cls-13{opacity:.5;}.cls-5{fill:url(#linear-gradient-5);}</style><linearGradient id="linear-gradient" x1="178.59" y1="39.04" x2="757.05" y2="617.5" gradientUnits="userSpaceOnUse"><stop offset="0" stop-color="#eef7fe"/><stop offset=".33" stop-color="#ebf5fc"/><stop offset=".48" stop-color="#e4f0f8"/><stop offset=".59" stop-color="#d7e7f1"/><stop offset=".69" stop-color="#c5dae6"/><stop offset=".77" stop-color="#adcad9"/><stop offset=".85" stop-color="#90b6c8"/><stop offset=".92" stop-color="#6e9eb4"/><stop offset=".98" stop-color="#47839d"/><stop offset="1" stop-color="#3b7b97"/></linearGradient><linearGradient id="linear-gradient-2" x1="178.59" y1="39.04" x2="757.05" y2="617.5" xlink:href="#linear-gradient"/><linearGradient id="linear-gradient-3" x1="176.44" y1="37.52" x2="759.28" y2="620.36" gradientUnits="userSpaceOnUse"><stop offset="0" stop-color="#195370"/><stop offset="0" stop-color="#18526f"/><stop offset=".19" stop-color="#0f384d"/><stop offset=".39" stop-color="#082433"/><stop offset=".58" stop-color="#031520"/><stop offset=".78" stop-color="#000c14"/><stop offset="1" stop-color="#000a11"/></linearGradient><linearGradient id="linear-gradient-4" x1="195.72" y1="55.3" x2="740.09" y2="599.67" gradientUnits="userSpaceOnUse"><stop offset="0" stop-color="#65cbe9"/><stop offset="1" stop-color="#004c6f"/></linearGradient><linearGradient id="linear-gradient-5" x1="737.85" y1="408.86" x2="174.28" y2="408.86" gradientUnits="userSpaceOnUse"><stop offset="0" stop-color="#04589e"/><stop offset="1" stop-color="#880264"/></linearGradient><linearGradient id="linear-gradient-6" x1="732.8" y1="408.86" x2="179.34" y2="408.86" xlink:href="#linear-gradient-5"/><linearGradient id="linear-gradient-7" x1="44.85" y1="384.13" x2="840.58" y2="384.13" gradientUnits="userSpaceOnUse"><stop offset="0" stop-color="#343d80"/><stop offset=".5" stop-color="#6371d7"/><stop offset="1" stop-color="#343d80"/></linearGradient><linearGradient id="linear-gradient-8" x1="49.89" y1="384.13" x2="835.52" y2="384.13" xlink:href="#linear-gradient-7"/><linearGradient id="linear-gradient-9" x1="12.98" y1="388.5" x2="852.98" y2="388.5" xlink:href="#linear-gradient-7"/><linearGradient id="linear-gradient-10" x1="18.09" y1="388.5" x2="847.96" y2="388.5" xlink:href="#linear-gradient-7"/></defs><g id="BACK"><path id="white" class="cls-12" d="M840.31,442.19c6.92-7.48,11.85-19.01,8.18-28.6l-.03-.14c6.98-41.94-6.42-37.79-12.92-70.94-.26-8.05-8.73-13.63-10.58-20.68-4.18-12.15.93-24.59-4.9-39.1-1.39-3.53-4.04-6.24-6.83-8.65-8.85-7.79-8.98-20.58-17.18-28.7-6.17-4.33-2-10.06-2.56-16.03-1.07-4.53-2.52-9.85-5-13.62-.88-1.39-1.85-2.77-2.84-4.17-.18-.42-.39-.85-.64-1.19l-.04-.05c.11.21.29.59.48.96-3.09-4.39-6.27-8.91-7.25-14.13-2.54-18.28-18.09-32.09-35.81-35.72-2.09-.47-3.8-.77-4.65-1.86-2.11-5.07-.91-12.75-2.4-18.27-3.21-15.98-20.22-26.78-35.8-29.85-1.74-.39-4.01-.69-5.17-1.84-3.72-5.41-4-14.6-9.48-19.37-9.5-9.51-22.32-16-35.73-18.17-.85-.27.35-.43-1.46-.58-3.69-.29-7.52.13-11.34.55-3.19.65-5.47-.69-6.66-3.73-6.76-14.67-14.72-21.3-31.08-22.54-4.35-1-9.84,2.47-12.76-.81-2.48-3.98-5.59-8.09-8.65-11.38-2.52-3.9-4.79-7.81-9.53-9.52-7.85-3.35-19.25-2.55-27.39-.36-1.29.29-2.73.61-3.96.26-1.48-.32-2.74-1.63-3.91-2.68-9.12-8.7-29.43-9.2-39.85-4.62-2.82,1.35-5.49,2.22-8.79,1.81-15.21-1.96-26.2-18.39-42.85-14.91-5.97,1.36-12.47,5.38-18.19,6.51-6.54,1.52-6.39-1.77-15.43-4.85-6.35-2.27-12.94-3.53-19.62-1.49-10.27,2.57-14.97.63-25.46-.56-4.23-.4-8.52.76-12.31,2.61-9.46,4.26-13.99,5.59-21.91,6.77-21.84,1.83-15.59,7.24-30.26,13.09-20.32,2.94-39.06-3.13-56.02,12.21-.99.78-1.82,1.59-2.67,2.47-2.15,2.32-2.36,3.95-4.5,4.55-21.16.54-24.41.2-38.36,16.12-1.58,1.59-3.58,2.34-5.7,2.99-5.14,1.48-12.12,4.99-16.5,8.44-2.16,1.83-4.71,2.76-7.52,2.76-10.45,0-22.6,6.37-29.52,14.89-3.75,4.22-5.01,9.66-8.7,13.96-12.5,14.61-30.68,14.6-41.57,26.99-7.07,7.48-7.83,18.52-10.7,27.79-2.21,3.98-6.49,6.87-8.89,10.95-3.15,6.2-6.5,9.71-12.48,14.24-6.42,4.61-7.54,13.01-10.54,19.74-3.7,9.76-14.26,15.32-18.56,25.85-4.02,15.84,2.15,29.45-6.11,44.48-4.08,7.02-5.25,15.52-1.9,23.06,6.47,13.21,15.3,19.46,15.75,34.58.51,5.93-.61,11.75,2.62,16.96,7.56,13.16,21.13,21.18,30.53,32.88,10.2,14.09,19.53,32.87,34.95,34.41,5.15.73,12.34.82,17.15,1.9,1.26.38,2,.89,2.86,1.69,3.77,4.86,22.16,13.03,34.39,7.65,4.18-1.9,9.28-1.62,13.21.89,3.57,1.97,6.71,5.06,10.27,7.08,6.58,3.22,15.34,4.27,22.6,3.86,4.53.5,14.12-8.46,13.98.69,1.68,16.77-7.58,56.71,11.14,71.35,1.01,1.17,1.94,2.61,2.87,3.93,4.87,7.76,14.1,10.24,21.01,15.56,4.81,8.63,6.56,18.04,16.9,22.44,5.56,2.67,11.99,3.69,17.16,7.31,5.38,3.24,8.2,9.22,13.87,12.04,4.72,2.47,7.99,4.36,12.52,6.61,9.47,3.84,25.68,6.08,35.32-.78,9.26-.94,26.56,1.34,38.46-.16,3.09-.59,5.99.24,6.96,3.44,2.03,5.42,7.74,12.37,12.6,16.19,3.08,2.3,6.39,2.13,8.74,5.4,2.69,4.61,4.55,10.11,7.58,14.45,3.27,8.51,14.05,10.21,18.77,17.46,3.16,6.64,3.69,14.44,6.68,21.11.84,1.7,1.48,3.49,1.89,5.33,1.33,8.69,4.49,17.69,6.47,26.12.94,5.84,3.06,11.73,4.48,17.36,8.69,24.42,7.55,72.45,43.61,69.25,12.11-1.45,23.5-2.73,25.91-14.07,10.87-19.99-37.93-104.79-1.41-70.6,4.08,5.43,9.61,11.68,14.65,15.52,3.55,2.12,6.71,4.45,11.07,5.15,3.77.25,7.06.91,10.87,1.01,23.21.96,62.33,7.11,83.6-2.25.77-.43.62-.71.43-.93-.17-.24-.37-.37.19-.45.88-.16,3.87-.27,5.56-.97,3.02-1.21,5.72-3.54,8.65-5.02,4.43-2.31,10.18-1.31,14.06-5.1,5.73-5,9.2-15.01,11.53-19.69.64-1.36,1.56-2.29,2.88-3.03,12.89-4.98,22.07-19.02,31.63-28.77,2.31-2.29,5.17-3.47,8.26-4.62,25.82-8.56,28.35-61.34,10.2-77.44-6.08-3.38-7.5-14.34,1.76-13.03,23.99,1.67,66.62,4.81,72.7-22.99.86-1.5,2.66-3.53,3.96-5.61,8.29-13.64,27.46-27.84,19.86-44.6-2.86-5.58-4.27-10.46-6.37-16.53-2.7-7.53,1.82-13.51,7.48-17.94Z"/><g id="_50_" class="cls-13"><path class="cls-1" d="M840.31,442.19c6.92-7.48,11.85-19.01,8.18-28.6l-.03-.14c6.98-41.94-6.42-37.79-12.92-70.94-.26-8.05-8.73-13.63-10.58-20.68-4.18-12.15.93-24.59-4.9-39.1-1.39-3.53-4.04-6.24-6.83-8.65-8.85-7.79-8.98-20.58-17.18-28.7-6.17-4.33-2-10.06-2.56-16.03-1.07-4.53-2.52-9.85-5-13.62-.88-1.39-1.85-2.77-2.84-4.17-.18-.42-.39-.85-.64-1.19l-.04-.05c.11.21.29.59.48.96-3.09-4.39-6.27-8.91-7.25-14.13-2.54-18.28-18.09-32.09-35.81-35.72-2.09-.47-3.8-.77-4.65-1.86-2.11-5.07-.91-12.75-2.4-18.27-3.21-15.98-20.22-26.78-35.8-29.85-1.74-.39-4.01-.69-5.17-1.84-3.72-5.41-4-14.6-9.48-19.37-9.5-9.51-22.32-16-35.73-18.17-.85-.27.35-.43-1.46-.58-3.69-.29-7.52.13-11.34.55-3.19.65-5.47-.69-6.66-3.73-6.76-14.67-14.72-21.3-31.08-22.54-4.35-1-9.84,2.47-12.76-.81-2.48-3.98-5.59-8.09-8.65-11.38-2.52-3.9-4.79-7.81-9.53-9.52-7.85-3.35-19.25-2.55-27.39-.36-1.29.29-2.73.61-3.96.26-1.48-.32-2.74-1.63-3.91-2.68-9.12-8.7-29.43-9.2-39.85-4.62-2.82,1.35-5.49,2.22-8.79,1.81-15.21-1.96-26.2-18.39-42.85-14.91-5.97,1.36-12.47,5.38-18.19,6.51-6.54,1.52-6.39-1.77-15.43-4.85-6.35-2.27-12.94-3.53-19.62-1.49-10.27,2.57-14.97.63-25.46-.56-4.23-.4-8.52.76-12.31,2.61-9.46,4.26-13.99,5.59-21.91,6.77-21.84,1.83-15.59,7.24-30.26,13.09-20.32,2.94-39.06-3.13-56.02,12.21-.99.78-1.82,1.59-2.67,2.47-2.15,2.32-2.36,3.95-4.5,4.55-21.16.54-24.41.2-38.36,16.12-1.58,1.59-3.58,2.34-5.7,2.99-5.14,1.48-12.12,4.99-16.5,8.44-2.16,1.83-4.71,2.76-7.52,2.76-10.45,0-22.6,6.37-29.52,14.89-3.75,4.22-5.01,9.66-8.7,13.96-12.5,14.61-30.68,14.6-41.57,26.99-7.07,7.48-7.83,18.52-10.7,27.79-2.21,3.98-6.49,6.87-8.89,10.95-3.15,6.2-6.5,9.71-12.48,14.24-6.42,4.61-7.54,13.01-10.54,19.74-3.7,9.76-14.26,15.32-18.56,25.85-4.02,15.84,2.15,29.45-6.11,44.48-4.08,7.02-5.25,15.52-1.9,23.06,6.47,13.21,15.3,19.46,15.75,34.58.51,5.93-.61,11.75,2.62,16.96,7.56,13.16,21.13,21.18,30.53,32.88,10.2,14.09,19.53,32.87,34.95,34.41,5.15.73,12.34.82,17.15,1.9,1.26.38,2,.89,2.86,1.69,3.77,4.86,22.16,13.03,34.39,7.65,4.18-1.9,9.28-1.62,13.21.89,3.57,1.97,6.71,5.06,10.27,7.08,6.58,3.22,15.34,4.27,22.6,3.86,4.53.5,14.12-8.46,13.98.69,1.68,16.77-7.58,56.71,11.14,71.35,1.01,1.17,1.94,2.61,2.87,3.93,4.87,7.76,14.1,10.24,21.01,15.56,4.81,8.63,6.56,18.04,16.9,22.44,5.56,2.67,11.99,3.69,17.16,7.31,5.38,3.24,8.2,9.22,13.87,12.04,4.72,2.47,7.99,4.36,12.52,6.61,9.47,3.84,25.68,6.08,35.32-.78,9.26-.94,26.56,1.34,38.46-.16,3.09-.59,5.99.24,6.96,3.44,2.03,5.42,7.74,12.37,12.6,16.19,3.08,2.3,6.39,2.13,8.74,5.4,2.69,4.61,4.55,10.11,7.58,14.45,3.27,8.51,14.05,10.21,18.77,17.46,3.16,6.64,3.69,14.44,6.68,21.11.84,1.7,1.48,3.49,1.89,5.33,1.33,8.69,4.49,17.69,6.47,26.12.94,5.84,3.06,11.73,4.48,17.36,8.69,24.42,7.55,72.45,43.61,69.25,12.11-1.45,23.5-2.73,25.91-14.07,10.87-19.99-37.93-104.79-1.41-70.6,4.08,5.43,9.61,11.68,14.65,15.52,3.55,2.12,6.71,4.45,11.07,5.15,3.77.25,7.06.91,10.87,1.01,23.21.96,62.33,7.11,83.6-2.25.77-.43.62-.71.43-.93-.17-.24-.37-.37.19-.45.88-.16,3.87-.27,5.56-.97,3.02-1.21,5.72-3.54,8.65-5.02,4.43-2.31,10.18-1.31,14.06-5.1,5.73-5,9.2-15.01,11.53-19.69.64-1.36,1.56-2.29,2.88-3.03,12.89-4.98,22.07-19.02,31.63-28.77,2.31-2.29,5.17-3.47,8.26-4.62,25.82-8.56,28.35-61.34,10.2-77.44-6.08-3.38-7.5-14.34,1.76-13.03,23.99,1.67,66.62,4.81,72.7-22.99.86-1.5,2.66-3.53,3.96-5.61,8.29-13.64,27.46-27.84,19.86-44.6-2.86-5.58-4.27-10.46-6.37-16.53-2.7-7.53,1.82-13.51,7.48-17.94Z"/><path class="cls-8" d="M353.85,1.27c-5.18,1.31-13.1,5.38-14.4,7.42-.43.73-5.04,1.46-10.22,1.46-10.65,0-18.29,3.2-23.9,9.89l-3.6,4.22-21.45.73c-24.77.87-30.52,2.62-40.46,12.81l-6.05,6.26-11.52.15c-12.81.15-20.88,4.22-26.78,13.53-2.02,3.2-4.32,4.8-8.21,5.38-2.88.44-8.21,3.2-11.81,5.97-5.47,4.22-7.92,5.09-13.53,5.09-12.81,0-26.49,9.75-30.67,21.68-1.01,2.91-3.02,4.8-6.05,5.97-2.45.87-7.49,4.66-11.09,8.44-4.61,5.09-8.35,7.57-13.1,8.88-13.82,3.78-24.19,16.59-24.62,29.98-.29,7.42-.86,8.44-5.18,11.93-2.74,2.04-6.19,6.55-7.63,9.89-1.73,3.78-4.9,7.57-8.5,10.04-7.49,4.95-13.1,13.82-14.11,21.97-.58,5.53-1.44,6.98-4.9,8.88-10.37,5.38-16.7,20.52-14.25,34.2,1.58,9.6.43,15.86-5.04,26.19-7.34,14.11-3.89,30.27,9.07,42.49,4.18,3.93,4.32,4.51,3.6,13.97-.72,11.06,3.02,21.97,10.08,29.25,10.22,10.48,28.8,27.65,29.8,27.65.72,0,1.58,2.04,2.16,4.66,3.31,16.73,23.61,31.14,39.45,27.94,3.31-.73,5.18.15,9.21,3.64,9.79,8.59,23.33,11.06,36,6.4l6.91-2.47,4.61,4.51c10.8,10.19,26.78,13.53,39.31,7.86,3.89-1.75,7.34-2.62,7.92-2.04.43.73.43,12.66-.14,26.63-1.01,27.94.14,36.23,6.48,46.27,4.75,7.57,15.55,17.02,23.18,20.08,5.18,2.33,6.48,3.64,7.92,8.59,3.46,11.5,14.25,20.95,24.33,21.1,2.3,0,5.62,2.33,9.5,6.4,7.49,8.29,21.17,16.3,32.83,19.35,8.93,2.33,9.36,2.33,18.57-.73,7.92-2.76,10.51-3.06,15.84-1.89,9.36,2.33,17.28,1.89,23.04-1.02,8.06-4.22,13.68-2.76,15.55,3.93,1.58,6.26,10.08,15.13,17.28,18.19,4.18,1.75,5.33,3.2,6.91,8.73,2.02,7.71,9.65,17.02,16.85,20.37,5.9,2.91,6.77,4.51,9.93,16.15,2.3,9.02,3.46,13.1,14.54,53.84,3.74,13.53,8.93,32.59,11.52,42.34,8.21,30.56,10.37,32.59,34.12,32.59,15.26,0,15.55,0,20.59-4.51,8.64-7.71,9.07-12.22,3.02-34.92-5.62-21.54-12.96-47.29-14.54-50.93-.58-1.6,0-2.76,1.58-3.35,1.73-.73,6.34,2.91,16.99,13.39,21.89,21.39,19.15,20.66,70.84,20.66h43.2l6.48-4.07c3.46-2.33,7.2-5.24,8.35-6.55,1.01-1.31,3.46-2.47,5.47-2.47,8.93,0,20.01-9.75,23.9-20.81,1.3-4.07,3.6-6.55,9.65-10.04,4.32-2.62,9.21-6.98,11.09-9.75,1.73-2.62,5.47-6.55,8.21-8.73,2.74-2.04,5.76-5.09,6.62-6.84,1.01-1.75,5.18-4.51,9.36-6.26,14.4-6.11,22.32-19.35,20.16-33.61-.58-3.64-.86-11.35-.72-17.17.29-12.22-3.74-21.39-11.52-26.05-3.46-2.04-4.32-3.49-4.32-7.28v-4.8h25.92c22.46,0,26.78-.44,33.69-3.06,9.79-3.64,19.73-14.26,23.18-24.59,1.87-5.53,3.89-8.15,9.21-12.08,14.25-10.48,17.42-31.14,6.91-46.56-3.89-5.82-2.45-14.55,3.17-19.35,10.37-8.73,14.83-23.43,11.37-36.96-1.73-6.55-1.73-8.73-.29-12.37,4.75-11.06,1.73-26.63-6.77-35.21-5.62-5.67-5.76-6.4-5.04-13.1.86-8-3.89-20.23-9.93-24.88-3.74-3.06-4.75-11.06-2.74-23.14,1.58-10.33-1.73-18.92-10.51-27.5-4.75-4.66-7.63-8.73-7.63-10.77,0-4.95-4.18-12.66-9.36-17.17-4.32-3.93-4.61-4.66-3.89-12.22.86-10.33-1.3-16.73-8.35-24.88-3.89-4.51-5.76-7.86-5.76-10.91,0-17.61-15.26-32.74-37.72-37.4-3.74-.73-4.03-1.31-4.03-7.71,0-22.26-18.43-42.49-38.88-42.49-3.46,0-4.46-.73-5.04-4.07-4.03-19.5-27.21-35.8-51.11-36.09-10.8,0-12.24-.29-12.81-2.76-2.45-13.24-17.13-22.99-34.56-22.85-9.79.15-9.93.15-11.81-4.51-6.62-15.86-23.18-23.86-40.03-19.06l-8.93,2.47-4.61-4.51c-9.79-9.6-22.75-11.64-35.28-5.24-5.33,2.62-8.06,3.35-9.93,2.33-1.44-.73-5.47-1.89-9.07-2.47s-8.35-2.62-10.65-4.66c-12.67-10.77-34.99-10.77-43.92.15-1.58,2.04-2.45,1.75-7.2-2.04-9.07-7.42-20.3-9.17-31.82-5.09-5.47,1.89-6.91,1.89-13.39,0-7.92-2.33-9.5-2.47-16.13-.87ZM371.13,23.68c1.15,1.75,2.16,4.66,2.16,6.4,0,2.18,3.46,6.98,9.36,13.24l9.21,9.75.14,51.95v51.95l-3.74,2.91c-7.34,5.82-12.38,2.18-7.06-4.8,1.87-2.47,2.16-10.91,2.16-50.35v-47.44l-7.2-7.13c-6.62-6.69-7.63-7.13-13.68-6.69-14.69.87-19.58-18.04-6.05-23.86,5.33-2.18,11.52-.58,14.69,4.07ZM404.24,21.06c5.47,5.38,5.04,13.82-.86,18.77-7.78,6.55-17.13,3.93-19.87-5.82-3.6-12.81,11.66-22.26,20.73-12.95ZM451.18,20.77c10.65,7.13,5.76,22.85-7.2,22.85-11.23,0-15.84-13.53-7.49-21.97,5.04-5.09,8.21-5.24,14.69-.87ZM337.43,30.96c2.74,1.75,5.04,4.66,5.33,6.4.29,1.6,6.91,9.02,14.83,16.44l14.25,13.39v138.67l-21.6,21.39-21.6,21.24v41.62c0,37.25-.29,41.76-2.3,42.64-6.77,2.62-7.06.87-6.62-45.55l.43-43.51,21.02-21.24,20.88-21.39.29-64.46.14-64.61-13.97-13.68c-9.79-9.46-14.11-14.7-14.11-17.02,0-2.18-1.15-3.64-3.17-4.37-4.61-1.46-8.35,3.78-7.34,10.33l.86,5.09h-30.09c-24.19.15-30.67.58-32.83,2.18-6.34,4.8-13.1.58-8.93-5.67,3.46-5.38,10.65-6.69,38.01-6.69,22.75,0,24.77-.15,24.77-2.62,0-9.75,12.67-14.84,21.74-8.59ZM427.71,31.68c.72,4.66-2.3,7.86-6.77,7.28-3.89-.44-5.62-4.8-3.89-9.31,1.44-3.78,10.08-2.04,10.65,2.04ZM513.67,29.65c10.8,4.51,10.22,21.39-.72,23.72-4.18.73-4.32,1.02-4.32,9.02v8.15l-11.52,10.91-11.52,11.06v82.07l-3.74.87c-6.48,1.6-6.62.44-6.48-43.94l.29-42.05,11.52-11.79c12.38-12.95,14.11-18.33,9.79-30.85-2.3-6.69.58-14.55,6.48-17.17,5.62-2.33,4.46-2.33,10.22,0ZM477.82,31.98c3.89,0,7.78,5.67,7.78,11.5,0,13.82-16.56,18.33-22.89,6.11-4.32-8,3.46-20.66,11.09-18.19,1.15.29,2.88.58,4.03.58ZM557.58,37.8c.72,0,3.17,1.75,5.62,3.78,10.65,9.02-1.01,27.07-13.68,21.1-3.46-1.6-4.61-.58-22.32,17.17l-18.57,18.77v49.33c0,52.53-.43,55.73-7.2,55.73s-9.07-6.84-4.32-11.64c2.74-2.76,2.88-4.8,2.88-50.49v-47.73l19.73-19.94c15.98-16.15,19.73-20.66,20.16-24.59.72-7.71,8.21-13.82,14.54-12.08,1.15.29,2.45.58,3.17.58ZM422.82,49.58c5.62,4.37,5.33,13.24-.58,18.77-5.62,5.24-6.48,23.72-1.44,30.12,5.62,7.28,2.59,18.19-5.47,20.08-13.53,2.91-21.74-16.3-9.21-21.83,3.89-1.75,5.04-26.34,1.15-27.79-1.15-.44-2.88-2.76-3.74-5.09-5.04-12.22,8.93-22.55,19.29-14.26ZM448.73,49.87c3.74,2.76,2.59,8.88-1.73,9.46-6.34,1.02-9.65-4.66-5.18-9.02,2.74-2.76,3.6-2.91,6.91-.44ZM328.65,51.62c0,.44-.29.73-.72.73s-.72-.29-.72-.73.29-.73.72-.73.72.29.72.73ZM305.47,60.5c2.59,1.89,5.18,2.18,13.25,1.46,11.95-1.31,13.53-.58,25.49,11.2l8.93,8.88v51.37l-9.36,9.6-9.21,9.46-50.11.58c-53.71.58-53.85.58-56.59-5.97-6.05-14.99,15.12-24.16,22.03-9.6l2.45,5.09h78.47l6.91-6.55,6.77-6.4v-42.05l-8.06-8-8.21-7.86-14.25-.87c-7.92-.44-15.12-1.6-16.27-2.47-2.88-2.47-2.74-6.84.43-8.59,3.31-2.04,3.46-2.04,7.34.73ZM230.89,65.3c4.61,4.8,5.18,8.44,2.02,14.55-6.62,12.95-26.06,5.53-23.04-8.88,2.16-9.75,13.82-12.95,21.02-5.67ZM255.51,64.57c1.73,2.47,1.3,4.8-1.15,7.28-3.46,3.49-7.63,2.76-9.5-1.46-3.02-6.55,6.62-11.79,10.65-5.82ZM278.69,62.82c7.63,4.07,9.21,13.39,3.17,19.35-6.48,6.69-18.14,2.91-20.16-6.69-2.02-9.31,8.5-17.32,16.99-12.66ZM486.17,63.41c3.17,3.06,2.88,5.82-.72,8.44-3.89,2.76-6.77,1.6-8.06-3.2-1.44-5.82,4.61-9.6,8.78-5.24ZM607.69,65.01c1.87,1.16,4.03,3.78,4.75,5.97,1.44,3.78.14,5.24-40.46,45.4l-41.9,41.47.14,28.08v28.08l-6.77,8-6.91,7.86h-25.05c-27.36,0-30.38.87-30.38,8.29,0,4.51-6.05,7.57-9.36,4.8-4.18-3.49-2.59-10.04,4.18-16.88l6.19-6.4h49.96l4.03-3.93,4.03-3.93v-58.79l25.34-24.59c13.97-13.39,29.95-29.25,35.56-35.07,5.62-5.67,11.23-10.48,12.67-10.48,2.88,0,10.37-8.29,9.07-10.33-1.15-2.04-4.61-1.6-8.5,1.02-2.59,1.75-4.03,1.89-6.34.58-3.74-2.04-4.18-9.46-.58-11.5,3.31-1.75,16.13-.44,20.3,2.33ZM466.59,67.77c4.03,4.66,4.18,12.08.14,17.17-3.02,3.78-3.02,5.09-2.59,41.76l.58,37.83-23.33,22.99-23.47,23.14-.29,43.51-.43,43.36h-8.64v-91.09l23.47-22.85,23.47-22.85-.14-35.94c0-34.63-.14-35.94-2.88-36.81-1.58-.58-3.89-2.76-5.04-5.09-7.34-14.41,8.64-26.92,19.15-15.13ZM576.01,68.64c2.45,2.47,2.16,7.71-.43,9.89-2.88,2.47-8.78.73-9.79-2.76-1.58-6.11,6.05-11.35,10.22-7.13ZM204.54,78.83c2.74,2.76,2.02,6.69-1.87,9.31-3.74,2.47-5.62,1.89-7.78-2.18-3.02-5.53,5.33-11.5,9.65-7.13ZM298.56,79.99c4.9,2.76,2.16,11.64-3.6,11.64-.29,0-1.73-1.02-2.88-2.33-5.18-5.24,0-12.66,6.48-9.31ZM325.05,83.63c4.61,4.51,4.61,10.77,0,15.86-3.17,3.49-4.32,3.78-15.69,3.78-12.09,0-12.38.15-16.27,4.66-8.06,9.31-8.93,9.89-14.83,9.89-11.37,0-16.85-11.35-9.5-19.79,4.03-4.95,12.09-5.53,16.56-1.46,2.59,2.47,3.17,2.47,6.19.29,1.73-1.31,5.33-2.33,7.92-2.33,4.18,0,4.75-.44,4.75-3.64,0-5.53,6.05-10.91,12.24-10.91,3.6,0,6.34,1.16,8.64,3.64ZM562.48,84.51c4.46,5.24,4.61,7.86,1.01,13.97-4.61,7.57-17.85,7.42-20.88-.29-5.18-13.82,10.65-24.74,19.87-13.68ZM255.36,85.67c5.33,5.38,5.47,11.35.58,16.73l-3.46,3.78h-52.55l-25.63,26.19c-23.47,24.01-25.63,26.63-25.63,31.43,0,6.69-5.33,12.22-11.81,12.22-3.74,0-6.19,1.6-12.96,8.73-8.06,8.29-8.35,8.88-8.35,16.3v7.71l12.24,12.37,12.24,12.37v74.07l6.05,6.26,6.05,6.26h31.53c31.96,0,38.01-.87,36.43-5.24-2.45-6.4,6.77-10.48,12.38-5.38,5.04,4.51,2.45,9.46-8.93,16.3-4.75,2.91-7.06,3.06-40.32,3.06h-35.28l-8.93-8.44-9.07-8.44v-74.07l-11.52-11.64-11.52-11.64v-26.05l7.49-7.71c7.2-7.42,7.63-8.15,7.63-15.72.14-11.06,4.18-15.28,14.11-15.28h7.2l26.92-26.92,26.92-26.92h18.86c18.29,0,19.01-.15,19.01-3.06,0-4.37,7.63-11.5,12.24-11.5,2.3,0,5.47,1.75,8.06,4.22ZM439.37,86.54c1.15,2.33,2.59,5.53,3.31,7.13.72,1.46,1.3,14.11,1.15,28.23-.14,28.23-.86,30.85-11.95,36.96-6.19,3.49-6.77,4.95-5.76,15.57,1.01,11.2-.72,11.5-7.49,1.16-2.3-3.64-5.62-7.13-7.2-7.71-10.22-3.35-12.96-16.15-5.04-24.01l4.32-4.37-4.46-4.07c-6.19-5.82-5.47-11.06,1.58-11.06,4.46,0,5.04.44,5.04,3.93,0,2.18.86,4.8,1.87,5.67.86,1.02,1.73,2.62,1.73,3.64s2.02,2.47,4.32,3.35c2.45.73,4.75,2.47,5.18,3.78.43,1.16,2.02,2.18,3.31,2.18,5.33,0,5.9-2.91,5.9-26.92s0-23.57-3.6-26.92c-3.46-3.35-4.75-8.59-2.59-10.77,2.45-2.47,8.35,0,10.37,4.22ZM622.52,84.36c6.62,3.64,1.58,14.99-5.18,11.93-4.32-2.04-5.04-9.46-1.01-11.79,3.02-1.89,2.88-1.89,6.19-.15ZM186.39,87.85c1.73,2.47,1.3,4.8-1.15,7.28-3.46,3.49-7.63,2.76-9.5-1.46-3.02-6.55,6.62-11.79,10.65-5.82ZM649.45,88.14c5.47,1.6,4.03,6.11-2.59,7.86-3.17.87-6.34,2.76-7.06,4.22-2.16,4.07-9.36,6.55-12.96,4.51-4.61-2.47-3.74-4.22,6.05-12.81,5.33-4.66,9.65-5.53,16.56-3.78ZM166.96,95.27c4.9,3.49,6.77,11.2,4.03,16.73-4.75,9.17-16.13,9.31-21.31.29-6.62-11.35,6.77-24.45,17.28-17.02ZM672.92,102.69c6.05,6.55,4.9,15.57-2.59,22.41l-6.19,5.53v131.98l11.09,11.2,11.23,11.35h10.94c9.79,0,11.66.44,15.41,3.64l4.32,3.64,5.9-6.55c8.78-9.6,8.06-13.68-4.46-26.19-11.52-11.64-12.38-11.35-12.96,3.64-.43,9.89-.72,10.91-3.46,11.35-4.9.73-7.78-3.49-7.78-11.06,0-6.26-.43-7.13-5.18-10.19-12.24-8-7.49-25.03,7.06-25.03,5.62,0,6.62.87,19.01,13.68,7.06,7.57,15.41,15.13,18.43,16.88,5.9,3.49,6.77,6.4,2.45,9.02-1.58,1.02-2.88,3.35-2.88,5.24,0,4.95,8.06,4.07,9.36-1.16,2.02-7.86,8.35-11.2,16.13-8.59,4.46,1.46,5.18,1.16,9.93-2.91,8.64-7.71,19.29-4.95,19.29,4.95,0,7.42-8.78,12.08-13.53,7.28-3.17-3.2-6.19-1.89-7.34,3.35-1.58,7.71-6.62,11.06-14.69,9.75-13.82-2.04-14.25-1.89-24.33,8.59-8.93,9.46-9.21,10.19-9.21,17.32,0,11.64-11.66,22.12-15.84,14.26-2.16-4.37-1.73-5.53,2.16-6.55,3.6-.87,3.74-1.16,3.31-12.22l-.43-11.2-12.38-.44-12.53-.44-14.54-13.82-14.54-13.97v-137.22l-4.46-4.22c-5.76-5.53-7.2-9.6-5.47-15.72,3.6-13.39,19.58-17.46,28.8-7.57ZM535.84,101.24c6.48,8.29,1.01,20.23-9.07,19.94-16.27-.44-15.55-23.72.72-23.72,4.18,0,6.05.87,8.35,3.78ZM623.1,111.28c9.79,9.75-2.59,25.46-14.97,19.06-2.59-1.46-8.06-2.33-14.11-2.33-5.33,0-10.8-.73-11.95-1.46-1.73-1.16-1.73-1.46-.14-1.46,1.15,0,1.58-1.02,1.15-2.76-.86-3.35,2.3-4.51,12.38-4.51,3.74,0,6.77-.58,6.77-1.31,0-8.15,14.4-11.93,20.88-5.24ZM332.54,113.75c9.65,9.02-2.16,25.61-13.97,19.64-2.45-1.31-4.61-1.6-5.18-.87-.43.73-11.37,1.31-24.33,1.31h-23.61l-3.31-4.22c-3.31-4.22-3.6-4.37-19.01-4.8l-15.55-.44-6.34,7.28c-3.31,4.07-6.77,7.28-7.63,7.28-.72,0-1.87.44-2.45,1.02-.58.73-3.46,1.16-6.34,1.16-8.35,0-66.23,58.21-66.23,66.64,0,7.57-3.89,11.35-8.35,8.29-2.59-2.04-2.88-3.2-2.16-9.89l.72-7.57,32.68-33.18c30.67-31.14,32.83-33.03,37.87-33.03,4.32,0,6.62-1.31,13.1-7.28l7.92-7.28,21.74.29c20.73.29,21.89.44,24.91,3.64,3.02,3.2,4.03,3.35,24.33,3.35,17.85,0,21.17-.29,20.59-2.04-3.46-9.02,13.1-16.44,20.59-9.31ZM144.5,122.05c8.35,8.44,3.6,20.52-8.06,20.52-7.34,0-12.24-4.8-12.24-11.93,0-5.53,6.91-12.81,12.24-12.81,2.3,0,5.47,1.75,8.06,4.22ZM534.69,127.43c2.45,3.06,0,7.13-4.46,7.13s-6.91-4.07-4.46-7.13c1.15-1.31,3.02-2.33,4.46-2.33s3.31,1.02,4.46,2.33ZM713.38,136.31c5.47,5.38,5.47,5.53,5.47,16.88,0,9.31.58,12.22,2.88,15.13,8.21,10.62-3.31,25.32-14.83,19.06-8.06-4.37-9.21-13.68-2.45-20.08,6.48-6.11,6.62-25.46.29-26.92-2.3-.44-6.34-2.76-9.07-5.09l-4.9-4.22,8.64-.15c7.92,0,8.93.44,13.97,5.38ZM639.51,136.16c6.48,8.29,1.58,19.5-8.5,19.5-4.32,0-6.19-.87-8.5-3.78-6.48-8.29-1.58-19.5,8.5-19.5,4.32,0,6.19.87,8.5,3.78ZM113.97,140.53c9.07,7.71,3.74,20.95-8.5,20.95-10.51,0-15.12-12.66-7.34-20.52,5.18-5.24,10.08-5.38,15.84-.44ZM691.35,140.53c3.89,4.95,3.89,12.22.14,17.02-2.45,3.06-2.88,5.82-2.88,16.59v12.95l22.03,21.97,22.03,21.97,10.8.58c11.66.58,13.39.15,9.5-1.89-2.16-1.31-2.45-3.78-2.45-17.9,0-19.94-.58-20.81-14.4-21.54q-9.36-.44-9.36-4.8v-4.37l11.09-.44,10.94-.44,5.9,5.67,5.9,5.67v24.74l4.18.87c10.22,2.18,13.82,16.59,5.76,23.28-3.31,2.76-36.14,2.47-41.32-.44-1.15-.44-12.53-11.64-25.63-24.74l-23.61-23.86v-14.41c0-13.97-.14-14.41-4.32-18.77-8.5-8.59-4.03-21.54,7.34-21.54,4.18,0,6.05.87,8.35,3.78ZM605.68,147.22l8.06,8.88v16.3c0,14.7.29,16.59,3.02,19.06,6.91,6.26,6.05,16.3-1.87,20.37-12.09,6.4-22.46-8.73-13.39-19.5,3.31-3.93,3.6-5.53,3.6-18.19v-13.82l-7.34-6.69c-7.2-6.69-7.34-6.69-17.57-6.69h-10.22l-9.79,9.75-9.79,9.75v71.59l-13.53,13.39c-12.96,12.95-13.68,13.39-19.87,13.39-4.03,0-7.2.87-8.35,2.18-2.16,2.62-7.49,2.76-13.97.44l-4.9-1.75-17.85,18.04-18,18.19v53.4l-8.93,9.31-8.78,9.31h-29.8l-9.93-9.6c-9.79-9.31-10.22-9.46-13.39-7.28-11.52,8.15-24.33-7.13-15.41-18.63,5.9-7.57,10.94-5.67,27.64,10.77l14.69,14.55h11.52c11.23,0,11.52-.15,16.85-5.38l5.47-5.38v-54.13l21.31-21.39c11.81-11.79,22.17-21.39,23.04-21.39,1.01,0,1.73-.73,1.73-1.75,0-8.44,14.97-11.35,21.31-4.07,5.76,6.55,8.64,5.67,20.16-6.4l10.37-10.77v-70.86l11.81-11.93,11.95-12.08h32.11l8.06,9.02ZM592.28,162.35c7.34,7.13,6.77,19.64-1.15,24.88l-3.31,2.18v102.3l-7.34,8.29-7.34,8.44h-44.92l-14.54,14.55c-14.4,14.26-14.83,14.55-21.45,14.55-11.52,0-17.57-9.46-9.79-15.72,3.17-2.47,4.32-2.18,8.21,2.04l3.6,3.93,15.12-14.84,15.12-14.7h44.35l4.9-4.95,4.75-4.8v-100.11l-3.89-.44-4.03-.44v57.62l-7.2,6.98c-5.04,4.95-8.21,6.84-10.51,6.55-5.47-.73-4.61-5.67,2.59-12.81l6.48-6.4v-70.14l4.75-4.51c9.5-9.02,18-9.89,25.63-2.47ZM221.38,162.21c10.22,10.19-3.02,27.21-14.69,18.92-1.73-1.16-3.89-4.51-4.75-7.13-4.03-12.37,10.37-21.1,19.44-11.79ZM299.28,162.94c56.01,0,56.3,0,52.41,7.28-1.44,2.62-4.32,2.76-56.59,3.2-30.24.29-55.87-.15-56.73-.87-5.04-3.49-.14-11.79,6.05-10.33,1.58.44,26.35.73,54.86.73ZM643.26,166.57c4.32,4.22,4.9,12.95,1.15,17.17-3.74,4.07-2.88,29.1,1.15,34.34,3.89,4.8,3.6,12.66-.58,16.59-3.17,3.06-3.31,4.07-2.74,17.75l.58,14.55,22.03,22.55c20.3,20.66,22.03,22.99,22.03,27.79,0,3.78,1.15,6.4,3.74,9.02,5.18,5.24,5.04,11.64-.43,17.17-11.37,11.5-26.49-4.37-16.7-17.61,5.62-7.57,5.04-8.59-18.72-32.16l-22.32-22.12v-17.17c0-15.42-.29-17.32-2.74-18.77-6.62-3.49-6.62-17.61.14-19.64,2.3-.87,2.59-2.62,2.59-14.41,0-13.24,0-13.53-4.32-16.59-5.47-4.07-6.62-8.88-3.6-14.7,3.89-7.86,12.96-9.75,18.72-3.78ZM190.57,165.85c5.18,2.91,2.45,13.1-3.6,13.1-.29,0-1.73-1.02-2.88-2.33-5.47-5.53-.14-14.26,6.48-10.77ZM99,171.67c1.58,2.62-.86,7.28-4.46,8.15-1.87.44-3.17,1.46-2.74,2.04,1.44,2.47-5.33,8.73-9.36,8.73-6.77,0-7.78-8.88-1.3-10.91,1.58-.58,3.6-2.91,4.46-5.38,2.3-6.55,10.08-8.15,13.39-2.62ZM402.23,172.98c5.9,6.11,5.76,12.22-.86,18.48l-5.04,4.8v13.68c0,9.6.72,14.99,2.3,18.33,5.9,12.08-10.08,24.59-18.86,14.7-5.18-5.67-10.65-3.93-21.45,7.13l-9.79,10.04.29,30.27c.58,36.67.86,34.05-3.6,34.05-5.47,0-5.76-2.47-5.33-37.83l.43-32.01,9.36-10.04c9.65-10.33,16.27-14.7,22.75-14.7,2.02,0,5.18-1.6,7.2-3.64,2.02-2.04,4.61-3.64,5.9-3.64,1.73,0,2.16-2.33,2.16-13.24,0-12.81-.14-13.39-4.32-17.32-3.46-3.2-4.32-5.38-4.32-9.89,0-12.66,14.11-18.33,23.18-9.17ZM245.43,184.91c3.46,2.47,6.62,2.76,27.5,2.76h23.47l11.95,12.37c9.65,9.89,11.81,12.95,11.23,15.57-.58,1.89,0,4.22,1.44,5.82,4.9,5.38-.43,12.51-7.49,9.89-3.17-1.16-3.6-2.18-3.6-9.02,0-7.28-.29-8-8.21-16.01l-8.21-8.44h-43.2l-3.89,4.66c-10.51,12.81-30.52-2.76-20.3-15.86,5.04-6.55,11.81-7.13,19.29-1.75ZM326.63,189.27c4.9,4.8,10.37,9.6,12.09,10.48,4.9,2.47,6.77,6.26,4.9,9.31-3.02,4.95-6.34,3.78-16.13-5.67-5.33-5.24-11.37-10.62-13.53-11.93-4.32-2.76-5.18-6.4-2.3-9.31,3.17-3.2,6.05-1.89,14.97,7.13ZM348.52,182.14c5.62,5.67-2.45,14.55-8.35,9.17-3.46-3.2-3.6-5.53-.58-8.59,2.59-2.76,6.48-3.06,8.93-.58ZM483,186.22c4.61,3.49,5.76,9.46,3.31,15.57-2.74,6.4-10.65,8.15-19.87,4.07-1.87-.87-5.47,1.89-15.55,11.79l-13.1,12.95.43,26.92c.58,27.79.14,30.56-4.46,30.56s-4.9-2.62-4.46-32.74l.29-29.1,13.25-13.53c7.34-7.57,14.69-14.26,16.41-14.84,1.73-.73,4.18-3.64,5.33-6.4,3.46-8.29,11.66-10.77,18.43-5.24ZM214.18,190.58c1.15,1.02,2.16,3.2,2.16,4.95,0,6.69-6.77,8.88-11.09,3.78-1.87-2.18-4.32-2.91-9.07-2.91-13.25.15-17.28,2.04-28.36,13.53l-10.51,10.77v64.75l6.91,6.4c6.62,6.11,7.06,6.4,16.27,6.4s9.65-.29,11.09-3.64c4.9-10.77,21.89-6.55,21.89,5.53,0,9.46-11.09,14.7-19.29,9.31-2.74-1.89-6.91-2.47-16.27-2.47h-12.81l-8.21-8.44-8.21-8.44v-74.07l14.11-14.26,13.97-14.41,17.57.73c11.37.29,18.43,1.16,19.87,2.47ZM723.17,194.08c.86,1.16,1.44,3.64,1.15,5.53-.86,6.11-11.23,4.66-11.23-1.6,0-5.38,6.62-8,10.08-3.93ZM78.84,198.15c2.16,1.75,4.9,5.24,5.9,7.86,1.15,2.62,9.36,12.08,18.57,21.24l16.56,16.44v82.8l6.77,6.98,6.77,6.98h42.33c40.17,0,42.48-.15,45.93-2.91,10.22-8,23.04,2.76,18.29,15.28-2.74,6.98-15.55,7.86-20.59,1.31l-2.74-3.49h-86.82l-9.93-10.62-9.93-10.48-.14-40.74v-40.74l-14.69-14.84c-11.52-11.64-15.26-14.55-16.99-13.53-4.46,2.91-12.53,1.75-15.69-2.33-9.79-12.66,4.18-28.96,16.41-19.21ZM745.34,197.71c4.46,4.95,0,11.64-6.34,9.6-3.46-1.16-4.46-5.67-1.87-9.31,2.59-3.78,5.04-3.93,8.21-.29ZM443.55,200.19c.58,3.64-3.17,7.13-6.19,5.82-4.46-1.75-1.3-10.19,3.6-9.31,1.15.29,2.3,1.89,2.59,3.49ZM99.72,200.04c2.88,3.49,1.15,7.13-3.89,8.15-5.18,1.02-7.63-.73-7.63-5.38,0-4.95,8.06-6.84,11.52-2.76ZM683.57,203.97c11.52,5.24,8.93,21.54-3.46,21.54-10.65,0-14.97-12.66-6.77-19.79,4.46-4.07,5.18-4.07,10.22-1.75ZM287.62,207.46c7.92,5.24,7.34,19.5-.72,23.86-2.59,1.46-2.88,3.06-2.88,16.44v14.84l10.8,10.19,10.8,10.33v28.52c0,27.5-.14,28.67-2.88,29.54-6.48,2.04-7.2-.73-7.2-28.52v-26.05l-10.08-9.6-10.08-9.6v-33.9l-4.9-4.07c-5.04-3.93-5.33-3.93-26.35-3.93-11.66,0-23.61-.58-26.35-1.16-11.81-2.62-28.22,0-34.7,5.38-5.9,4.95-5.9,5.24-5.04,12.37.86,8.15-.58,11.06-5.76,11.06-4.61,0-6.77-4.8-5.9-13.53.58-6.69,1.3-8,10.08-16.59l9.5-9.31,19.15.87c10.51.58,28.22.87,39.31.87l20.16-.15,4.03-5.09c4.75-5.82,12.67-6.98,19.01-2.76ZM740.3,215.18c4.32,2.76,3.17,9.75-1.58,10.04-7.34.58-10.65-4.37-6.05-9.02,2.45-2.62,4.61-2.91,7.63-1.02ZM59.54,229.73c4.75,4.95,5.04,7.28,1.87,13.97-5.62,12.08-22.17,7.86-22.17-5.53,0-5.38,7.06-12.66,12.24-12.66,2.3,0,5.47,1.75,8.06,4.22ZM219.94,233.36c3.17,3.2,4.75,3.49,20.88,3.93,19.01.58,23.04,2.47,23.04,10.62,0,7.13-8.93,9.46-11.81,3.06-1.73-3.93-2.45-4.07-20.88-3.93-7.06,0-9.65.73-12.09,3.06-7.2,6.69-20.01,1.31-20.01-8.29,0-10.91,13.25-16.15,20.88-8.44ZM615.9,232.78c2.3,2.47,2.59,5.24,2.3,19.79l-.29,16.73,4.46,4.22c5.47,5.09,5.33,9.31-.29,9.89-8.5,1.02-11.23-4.95-11.23-24.59,0-18.19-.58-21.68-3.74-21.68-1.73,0-2.02,6.26-2.02,36.09v35.94l-12.81,12.95-12.81,12.95-18.57-.73-18.43-.73-10.8,10.33c-5.9,5.67-19.73,19.06-30.52,29.54-20.59,19.94-25.92,23.43-29.52,18.63-4.32-6.26.86-14.26,7.34-11.2,3.02,1.31,3.6,1.16,4.03-1.16.29-1.46,12.67-14.55,27.5-28.96l27.21-26.34h38.88l9.93-9.75,9.93-9.6v-34.78c0-21.24.58-35.94,1.44-37.69,2.16-4.07,14.4-3.93,18,.15ZM86.04,239.33c6.77,6.69,1.87,20.23-7.63,21.39l-3.89.44-.43,29.68c-.29,25.46,0,30.12,2.02,33.32,3.17,4.8,1.73,12.66-3.17,17.9l-3.89,4.07,12.09,11.35c19.58,18.33,18.57,17.17,18.57,23.57,0,5.53.29,5.97,5.76,7.42,9.79,2.62,6.48,11.5-3.46,9.6-6.19-1.16-10.94-6.84-10.94-12.95,0-3.78-3.02-7.42-20.88-25.03-20.73-20.52-20.88-20.66-20.88-27.21,0-6.98,4.75-13.39,10.8-14.55,2.74-.44,2.88-2.04,3.74-36.23,1.15-43.51,1.87-45.98,13.97-46.27,3.17-.15,5.9,1.02,8.21,3.49ZM473.79,242.53c.58,5.67-3.6,8.73-8.35,6.26-5.9-3.2-2.45-12.08,4.32-11.35,2.88.29,3.74,1.31,4.03,5.09ZM310.94,245.88c8.06,7.42,3.89,19.35-6.91,20.08-7.63.44-11.09-2.33-12.38-10.33-1.58-10.19,11.66-17.02,19.29-9.75ZM381.92,255.05c0,1.02-2.59,4.51-5.76,7.57l-5.76,5.67v22.12c0,24.16-.43,26.77-4.46,26.77-4.61,0-5.62-4.95-5.62-27.79,0-24.74.72-26.92,11.09-35.07,5.18-4.07,10.51-3.64,10.51.73ZM247.44,258.1c.43,2.04.43,4.22,0,4.95s1.01,1.75,3.17,2.33c2.3.44,9.5,6.55,18.29,15.42l14.4,14.55v27.21c0,25.17-.14,27.36-2.59,27.79-6.05,1.16-6.77-1.6-6.77-27.21v-24.16l-16.85-16.3c-9.36-9.02-17.57-16.44-18.14-16.44-2.02,0-3.6-6.4-2.16-9.17,2.02-4.07,9.5-3.35,10.65,1.02ZM682.71,257.81c1.58,4.22-1.73,8.44-6.48,8.44-3.89,0-5.76-4.51-3.46-8.73,2.16-4.07,8.35-3.93,9.93.29ZM50.04,261.89c0,5.53-4.46,7.86-8.78,4.37-4.61-3.93-1.01-10.62,5.18-9.89,3.02.44,3.6,1.16,3.6,5.53ZM217.78,263.34c2.02,2.47,4.32,4.37,5.04,4.51.86,0,9.65,8,19.73,17.75l18.14,17.75.72,26.48c.72,28.67.14,32.3-5.9,30.41-3.02-1.02-3.17-1.75-3.17-26.19v-25.17l-15.69-15.42c-16.27-16.15-17.71-16.88-22.32-13.39-6.05,4.66-15.84,1.46-18.14-5.82-4.61-13.97,12.24-22.41,21.6-10.91ZM458.81,261.3c3.17,3.06,2.88,5.82-.72,9.46s-8.93,1.16-9.65-4.37c-1.01-6.55,5.76-9.75,10.37-5.09ZM558.16,266.25c7.2,8.15,6.62,16.01-1.3,16.01-4.18,0-6.48-2.76-6.48-7.57,0-6.84-5.18-5.24-14.25,4.66l-8.06,8.73h-23.04l-16.13,16.3-16.27,16.44v45.11l-13.97,13.39-14.11,13.53h-50.39l-15.41,15.57-15.41,15.57-14.25-.44-14.4-.29-3.6,4.66-3.74,4.8,5.04,3.35c6.77,4.66,8.64,16.73,2.3,15.42-3.17-.73-5.9,4.8-5.04,10.19l.86,5.38,6.91-.87c15.26-2.04,20.73,18.63,6.34,24.16-8.06,3.06-16.56-2.33-16.56-10.77,0-2.04-1.44-4.8-3.6-6.4-2.16-1.75-3.6-4.37-3.6-6.55,0-2.91-1.01-4.07-5.18-5.38-6.05-2.04-10.65-8.73-10.65-15.86,0-5.24,3.74-9.46,20.73-23.86l8.21-6.84h26.06l16.56-16.15,16.41-16.3,24.05.87,24.05.73,11.09-11.06,11.23-11.2.72-23.28.86-23.28,6.77-6.55c3.74-3.64,12.38-11.93,19.29-18.48l12.38-12.08h20.88l9.07-8.73c11.66-11.35,17.42-12.08,25.63-2.91ZM96.26,266.98c2.16,5.53-6.34,10.62-10.65,6.26-2.45-2.47-2.16-5.09,1.15-8.44,3.17-3.2,7.92-2.04,9.5,2.18ZM184.52,265.67c1.73,2.18,3.02,5.67,3.02,8,0,11.5-15.69,16.44-21.6,6.69-7.63-12.37,9.79-26.05,18.57-14.7ZM397.47,267.12c4.9,3.35,4.46,13.82-.58,17.9-11.66,9.31-25.05-6.11-15.26-17.75,2.74-3.2,11.52-3.35,15.84-.15ZM718.27,270.76c.43.87.14,2.33-.72,3.2-2.02,2.04-2.16,4.37-.14,3.2.86-.44,1.44-.29,1.44.58,0,2.47-4.9,4.22-8.21,2.91-3.74-1.31-4.75-9.17-1.44-10.48,3.17-1.31,8.06-1.02,9.07.58ZM48.46,274.98c2.02.73,4.61,3.35,5.9,5.82,5.18,10.19-4.9,21.68-15.12,17.46-15.55-6.55-6.62-29.39,9.21-23.28ZM797.32,282.84c14.54,6.11,10.65,27.07-5.04,27.07-12.81,0-19.44-15.13-10.37-23.57,6.19-5.82,8.5-6.4,15.41-3.49ZM99,285.89c4.18,4.07,4.75,11.64,1.44,16.15-1.58,2.04-2.02,7.28-2.16,20.52,0,20.66-1.01,24.3-7.78,27.65-9.07,4.37-12.53-1.75-5.33-9.46,6.48-6.69,5.62-30.12-1.3-36.67-3.46-3.2-4.32-5.24-4.32-9.89,0-10.77,12.09-15.86,19.44-8.29ZM483.87,285.75c.72,3.35-3.31,6.84-6.34,5.67-4.32-1.6-1.01-9.75,3.74-8.88,1.15.29,2.3,1.75,2.59,3.2ZM634.62,293.17c7.49,7.42,2.3,21.1-7.92,21.1-6.05,0-11.52-5.67-11.52-12.08,0-10.91,12.09-16.59,19.44-9.02ZM390.56,297.97c4.03,3.35,3.17,9.75-1.58,11.2-5.9,1.89-10.51-6.26-6.19-11.06,3.02-3.49,3.74-3.49,7.78-.15ZM754.84,299.43c8.78,7.28,3.6,21.68-8.35,22.7-7.2.73-7.49.87-31.53,24.88l-17.71,17.46v10.04c0,8.29.58,10.77,3.02,13.39,4.46,4.8,4.18,13.39-.86,17.61-5.33,4.8-11.52,4.37-16.56-1.02-5.62-6.11-18.72-6.55-21.31-.73-2.16,4.66-7.92,6.98-14.69,5.82-4.75-.73-5.62-.29-15.12,9.46l-10.08,10.19-12.96-.15c-15.26-.15-18-1.31-18-7.13,0-5.09,5.18-7.28,10.94-4.51,9.36,4.22,15.84,2.33,27.36-8.15,7.49-6.69,10.65-10.62,10.65-13.1,0-8.29,13.53-12.95,20.3-6.84,4.18,3.78,18,2.62,23.76-2.04q4.9-3.93,4.9-16.3v-12.37l22.17-21.39c20.45-19.94,22.17-21.97,22.89-27.65,1.44-11.06,13.25-16.73,21.17-10.19ZM52.92,305.54c5.33,5.97-3.46,14.11-9.07,8.44-2.45-2.47-2.16-6.4.58-9.02,3.02-3.06,5.33-2.91,8.5.58ZM661.83,305.83c2.59,4.22-3.6,9.46-8.5,7.28-3.46-1.6-5.04-7.13-2.59-9.6,1.87-1.89,9.5-.15,11.09,2.33ZM704.16,305.83c4.61,4.66-1.15,11.64-6.91,8.44-3.31-1.75-3.31-1.6-1.44-6.4,1.44-4.07,5.47-4.95,8.35-2.04ZM773.27,308.01c1.73,3.35.72,5.82-2.59,7.71-4.32,2.33-7.2.29-7.2-5.24,0-4.51.43-4.95,4.32-4.95,2.59,0,4.75,1.02,5.47,2.47ZM804.95,319.22c1.44,6.84-8.64,9.31-11.52,2.91-1.58-3.35-1.44-4.22,1.58-6.55,3.89-3.2,9.07-1.16,9.93,3.64ZM424.83,321.25c8.5,6.69,3.02,22.12-7.78,22.12s-16.13-13.53-8.5-21.1c4.18-4.37,11.37-4.8,16.27-1.02ZM655.49,323c7.06,7.13,3.74,18.04-6.62,21.54-3.89,1.31-10.37,6.69-21.6,17.9l-15.98,15.86h-43.05l-3.89,4.07-3.89,4.07v49.91l-4.32,5.09c-2.45,2.76-21.31,21.24-41.76,41.03l-37.44,35.94v26.77c0,29.68-.58,32.45-7.34,32.45-3.6,0-6.77-2.33-17.28-12.81l-12.81-12.81v-12.08c0-11.93,0-12.08-3.17-11.2-1.87.44-34.27,1.31-71.99,1.75-37.87.58-68.82,1.46-68.82,1.89,0,1.46,16.41,17.61,18,17.61,1.01,0,3.17-1.6,5.04-3.64,6.91-7.42,20.16-2.33,20.16,7.71,0,10.91-12.96,16.15-20.3,8.29-1.87-1.89-5.04-3.64-6.77-3.64-2.3,0-6.91-3.35-13.1-9.46-8.64-8.44-10.37-9.46-15.55-9.46-16.41,0-16.56-22.99-.14-25.61,5.47-.87,5.47-1.02,5.47-7.57s-.29-6.84-15.84-21.97l-15.84-15.42v-40.6l20.88-20.66,20.88-20.52-1.44-4.95c-4.9-16.73,14.69-26.48,22.46-11.35,3.74,7.42-.86,17.75-8.78,19.21-1.58.29-12.38,10.04-24.05,21.68l-21.31,21.1v30.12l15.98,16.3,15.98,16.3-.58,12.51-.43,12.51h53.27c29.37,0,57.59-.44,62.78-.87l9.65-1.02,1.58-5.53c1.87-6.4,5.04-8.59,12.38-8.59,9.93,0,11.81,3.93,12.09,24.74l.14,17.9,10.08,10.33,10.08,10.33v-53.69l16.27-16.15c8.78-8.88,27.64-27.36,41.76-41.18l25.63-25.03-.29-25.03-.29-25.03,7.49-7.13,7.49-7.28,20.01,1.16,19.87,1.02,15.26-14.84c8.35-8.29,15.26-15.42,15.26-16.15,0-2.33-25.05-1.6-28.22.87-5.62,4.22-13.53.87-13.53-5.82,0-6.26,3.31-7.28,22.61-6.84,17.71.58,17.85.58,20.73-3.2,3.74-4.8,12.81-5.24,17.13-.87ZM784.22,325.33c2.74,1.02,3.02,6.55.58,9.02-3.31,3.35-9.65,2.18-10.65-1.89-1.58-6.11,3.46-9.75,10.08-7.13ZM768.95,335.51c3.6,4.07,4.18,10.33,1.15,14.41-1.87,2.62-7.34,4.66-5.76,2.04.43-.73,1.44-.87,2.3-.44,1.01.73,1.15.29.58-.73-1.3-2.04-6.62,1.89-6.62,4.8,0,.87-5.47,7.28-12.24,13.97l-12.24,12.37.86,19.94,1.01,19.94-5.33,5.97-5.33,5.97,4.32,5.09c5.62,6.4,6.62,10.62,4.03,17.02-5.47,12.95-20.16,14.41-27.93,2.62-5.76-8.59-3.46-18.77,5.76-25.17,2.74-1.89,6.91-5.67,9.36-8.59l4.61-5.38v-41.91l10.8-10.77,10.65-10.77-.86-8.29c-1.58-15.13,11.52-22.7,20.88-12.08ZM810.13,334.64c5.47,2.04,9.79,9.75,8.93,15.86-.58,3.78-3.46,7.86-11.52,16.01l-10.65,11.06-.14,11.64-.14,11.64-12.24,11.64-12.24,11.64v30.56c0,32.16.58,37.11,3.74,37.11,1.58,0,2.02-5.09,2.3-27.36.29-36.23.29-35.65,3.74-40.74,4.75-6.55,9.5-9.02,17.42-9.02,6.05,0,7.78-.73,11.37-4.37,5.9-5.82,11.95-5.82,17.71-.15,12.09,12.37-4.32,28.67-17.85,17.75-4.46-3.49-6.19-3.93-12.09-3.49-11.95,1.16-12.09,1.6-11.81,38.71q.14,32.01-3.17,34.63c-4.61,3.64-11.52,3.49-16.27-.29l-3.74-2.91v-74.36l12.24-11.64,12.24-11.79v-23.43l8.5-8.29c4.61-4.66,7.49-8,6.48-7.57-3.31,1.31-2.3-1.02,2.45-4.95,4.75-4.07,5.18-9.46.86-10.33-2.88-.58-8.21,3.49-8.21,6.4,0,.87-9.21,10.77-20.45,21.68l-20.59,20.08-.72,42.64-.72,42.64-5.76,5.97-5.62,5.82h-117.92l-12.38-12.22c-6.77-6.84-14.11-12.66-16.27-13.24-13.53-3.49-11.37-23.86,2.45-24.01,8.5,0,14.69,8.73,10.94,15.72-1.3,2.47,0,4.37,9.65,13.97l11.09,11.06h54.57c48.81,0,54.86-.29,57.31-2.47,2.45-2.18,2.59-5.53,2.59-45.11v-42.78l26.35-26.63c30.09-30.27,29.8-30.12,37.58-27.07ZM546.93,345.56c2.16,1.75,9.07,2.04,36.14,2.18,36.43,0,39.16.58,30.81,6.98l-4.61,3.64-33.98-.29c-18.57-.15-34.7-.73-35.85-1.16-3.17-1.16-3.89-6.11-1.44-9.89,2.74-4.22,4.9-4.51,8.93-1.46ZM740.16,345.12c4.18,4.22,1.87,9.02-9.07,20.08l-10.8,10.77v37.83l-7.49,7.71-7.49,7.71h-51.55l-9.5,9.31c-10.51,10.04-12.67,11.35-16.41,9.31-5.04-2.47-2.59-6.55,10.51-17.61l13.1-11.2h52.12l4.03-3.93,4.03-3.93v-41.33l8.5-7.86c6.62-5.97,8.5-8.59,8.5-11.93-.14-6.11,7.2-9.31,11.52-4.95ZM118.87,348.76c.86,2.33,2.59,4.66,3.6,5.24,1.01.73,4.18,3.2,6.91,5.67,4.75,4.22,5.04,4.37,8.5,2.04,3.02-2.04,8.64-2.33,37.15-2.33,35.71,0,38.01.44,36.72,6.84-.43,2.47-3.02,2.62-34.12,3.06-30.96.29-33.84.58-37.29,3.2-5.18,4.22-6.05,3.93-18.29-6.55-6.05-5.24-11.52-9.46-12.24-9.46s-1.73-1.6-2.3-3.64c-2.02-7.86,8.06-11.5,11.37-4.07ZM351.26,347.16c-.43.44-1.73.58-2.74.15-1.15-.44-.72-.87.86-.87,1.58-.15,2.45.29,1.87.73ZM672.34,353.85c11.09,10.48-3.02,25.17-16.99,17.75l-4.46-2.18-16.13,16.01-16.13,16.15h-38.16l.29,19.64c.29,19.5.29,19.79-3.46,23.72-2.16,2.33-3.89,4.66-3.89,5.38,0,.87,10.8,12.37,24.05,25.76l24.19,24.45h79.48l3.31-3.64c4.75-5.09,13.1-5.09,17.13.15,9.36,12.08-6.91,26.92-17.28,15.72l-3.46-3.78-41.32.58-41.47.44-26.21-26.48-26.06-26.34-23.9,22.85c-13.1,12.66-29.37,27.94-36.14,33.9l-12.24,10.91-.43,40.6-.29,40.74-12.24,12.22c-7.06,7.13-12.24,13.53-12.24,15.13,0,8.15,30.81,117.14,32.54,115.39.43-.44-3.46-16.15-8.78-35.07-9.36-33.61-10.22-38.71-7.2-39.72,3.46-1.16,6.62,3.78,8.78,12.66,1.15,5.24,5.76,22.85,10.22,39.14,8.93,33.03,9.07,32.16-2.59,32.16-8.93,0-9.5-.87-15.69-24.45-3.02-10.91-10.37-37.98-16.41-59.95-6.05-21.97-10.94-41.33-10.94-42.93,0-2.04,4.75-7.86,12.96-15.86l12.96-12.95v-79.3l43.92-42.49,43.92-42.49v-20.23c0-26.92-.72-26.05,24.48-26.05h18.86l15.69-15.28c9.65-9.46,16.7-15.28,18.57-15.28,1.73,0,3.02-.58,3.02-1.31,0-7.71,13.39-11.64,19.73-5.67ZM330.81,353.56c.43.73,0,1.46-1.3,1.46-1.15,0-3.31.44-4.75.87-2.3.87-2.3.73.29-1.31,3.46-2.76,4.61-3.06,5.76-1.02ZM491.06,357.63c.58,3.64-3.31,9.02-6.34,9.02-3.6,0-6.77-6.69-4.9-10.19,2.3-4.51,10.65-3.64,11.23,1.16ZM351.54,364.47c7.06,3.64,7.92,11.2,2.16,18.04-7.34,8.88-20.73,3.78-20.73-7.86,0-10.04,9.21-15.13,18.57-10.19ZM376.31,368.11c5.33,2.91,2.59,11.64-3.74,11.64s-8.5-6.4-4.18-10.77c2.59-2.76,4.03-2.91,7.92-.87ZM116.85,369.56c8.35,4.37,2.59,14.11-6.19,10.77-3.17-1.16-3.02-8.73.29-10.62,3.02-1.89,2.88-1.89,5.9-.15ZM237.94,371.89c1.44,1.6,1.58,3.35.58,6.11-2.45,6.98-12.09,5.53-12.09-1.75,0-6.26,7.63-9.17,11.52-4.37ZM530.37,373.78c9.79,9.89-.43,23.72-13.97,18.77l-4.9-1.75-12.09,11.93-12.09,11.93h-73l-24.48,24.74-24.48,24.88-9.21-.44c-6.77-.29-9.65-1.02-10.8-2.91-2.02-3.49-.58-4.37,8.06-5.24q7.49-.73,32.4-25.17l24.77-24.59h72.14l14.11-13.24c7.63-7.28,14.4-14.41,14.97-15.86,2.88-7.71,12.38-9.31,18.57-3.06ZM288.48,373.78c4.32,3.64,1.44,11.06-4.32,11.06s-8.06-5.24-4.32-9.89c3.6-4.66,4.32-4.8,8.64-1.16ZM826.83,373.2c11.66,6.11,6.77,24.01-6.62,24.01-10.94,0-15.26-13.1-7.2-21.24,5.47-5.53,7.78-5.97,13.82-2.76ZM195.61,381.93c2.02,5.24-2.02,6.55-20.01,6.55-19.87,0-22.61,1.16-22.61,9.89,0,14.41-19.87,16.44-24.48,2.62-3.17-9.75,4.03-17.9,14.4-16.44,4.32.58,6.19.15,8.06-2.04,3.31-3.78,43.34-4.22,44.63-.58ZM271.78,383.39c7.34,7.28,2.88,21.1-6.91,21.1-3.31,0-6.05,2.04-13.39,9.75l-9.07,9.89-.14,32.3c0,31.72,0,32.3,3.17,34.49,2.88,2.04,3.46,2.04,6.19-.44,7.63-7.28,19.44-1.6,19.44,9.31,0,7.42-5.47,12.37-13.68,12.37-5.62,0-6.77-.73-14.69-9.31l-8.64-9.17-.86-12.22c-.58-6.69-1.01-23.14-1.01-36.52v-24.3l10.51-10.19c10.22-9.89,10.37-10.33,9.93-16.59-1.01-11.5,11.52-18.33,19.15-10.48ZM219.08,386.59c10.08,11.5-6.34,26.05-17.28,15.13-4.75-4.8-5.04-7.28-1.87-13.39,4.03-8,12.81-8.73,19.15-1.75ZM368.1,390.23c2.16,3.06,2.02,3.49-2.45,8.15-7.92,8.29-10.37,9.02-32.25,9.02h-19.87l-11.09,11.93-11.23,11.79v33.76l17.57,17.75,17.71,17.9h58.46l3.74-4.37c9.93-12.08,27.21,2.62,17.57,15.13-3.46,4.37-11.81,5.24-16.56,1.6-2.16-1.75-8.78-2.04-34.41-2.18h-31.68l-20.45-20.66-20.59-20.81.14-21.83.14-21.83,14.83-14.26,14.97-14.11h38.44l4.9-5.09c5.62-5.82,9.07-6.4,12.09-1.89ZM779.03,388.77c2.45,2.47,2.16,7.71-.43,9.89-5.47,4.51-13.82-3.93-9.36-9.46,2.16-2.62,7.34-2.91,9.79-.44ZM184.81,405.22c4.61,4.37,9.5,8,11.09,8,3.89,0,5.47,4.51,2.3,6.84-5.33,3.93-10.8,2.33-18-5.38-5.04-5.38-7.78-7.28-10.8-7.28-9.79-.15-10.8-7.42-1.3-8.88,3.17-.44,6.34-1.02,7.06-1.02.72-.15,5.04,3.35,9.65,7.71ZM543.47,405.94c7.49,7.71,2.88,18.92-7.63,18.92s-15.41-12.08-7.78-19.64c4.75-4.95,10.08-4.66,15.41.73ZM393.44,411.04c0,6.4-7.34,8.59-9.65,2.76-1.15-3.06,4.46-8.15,7.49-6.84,1.15.44,2.16,2.18,2.16,4.07ZM515.97,414.53c5.47,5.67,5.76,13.39.58,18.19-3.17,3.06-3.6,4.51-3.6,13.82v10.48l-16.13,15.72c-8.93,8.59-19.01,18.04-22.17,20.95l-5.9,5.38h-38.3l-6.48-6.55-6.48-6.55h-27.64c-28.94,0-32.68-.73-30.38-6.55.72-1.89,5.47-2.18,31.96-2.18h31.24l6.91,6.55,6.91,6.55h27.64l7.49-6.84c4.18-3.78,12.81-12.08,19.44-18.48l11.81-11.79v-7.71c0-6.98-.43-8-5.04-12.08-9.5-8.44-4.03-23.14,8.64-23.14,3.89,0,6.34,1.16,9.5,4.22ZM429.44,425.59c2.74,1.6,9.5,2.04,27.93,2.18h24.33l6.34,6.55c6.91,7.28,6.77,12.37-.29,12.37-3.46,0-4.75-1.02-8.64-6.55-2.45-3.64-42.48-4.22-43.77-.58-2.59,7.86-12.81,10.91-19.44,5.53-10.65-8.44,1.73-26.34,13.53-19.5ZM357.16,433.88c4.75,4.8-1.44,12.95-7.63,10.19-6.19-2.91-4.03-11.93,2.88-11.93,1.73,0,3.74.73,4.75,1.75ZM809.99,435.34c10.37,5.53,8.64,20.08-2.88,23.57-4.9,1.6-11.52-2.62-13.25-8.29-3.6-11.06,6.48-20.52,16.13-15.28ZM685.73,437.23c2.3,1.31,5.18,4.22,6.48,6.55,9.79,19.06-14.11,33.76-28.65,17.61-4.46-4.95-17.57-3.49-19.73,2.18-2.45,6.69-12.81,3.06-10.65-3.64,1.44-4.95,7.49-8.44,15.69-9.46,6.91-.87,8.64-1.89,14.97-8.29,7.92-7.86,13.68-9.17,21.89-4.95ZM408.56,445.23c2.45,2.76,2.3,3.06-4.9,11.06-4.03,4.37-7.34,8.59-7.34,9.31,0,2.47-4.9,2.91-8.06.73-5.18-3.35-2.88-12.37,3.31-12.37,1.01,0,1.87-.44,1.87-1.16,0-.58,1.3-3.2,2.88-5.82,3.31-5.38,8.21-6.26,12.24-1.75ZM474.79,450.32c7.63,7.57,2.59,19.64-8.06,19.64-3.02,0-5.9-.73-6.34-1.46-1.44-2.33-6.48-1.6-10.37,1.46-11.52,9.17-30.38-3.06-20.01-12.95,3.6-3.49,7.34-3.64,20.73-.87,3.31.73,4.61.58,4.61-.87,0-7.86,13.25-11.2,19.44-4.95ZM815.46,471.42c3.6,2.04,7.06,9.02,7.06,14.26s-3.02,9.17-12.24,15.28c-6.62,4.37-7.2,5.24-8.78,13.39-1.44,6.84-2.74,9.6-6.91,13.39l-5.18,4.8h-181.28l-18.72-18.19-18.72-18.19-13.97.15c-15.84.15-18.43-1.16-13.25-6.4,3.17-3.2,4.9-3.49,16.41-3.78,15.41-.29,14.25-1.02,36.86,21.54l15.41,15.28,84.66.58c98.34.73,95.46,1.02,95.46-10.77,0-4.22,1.01-8.59,2.88-11.5,2.74-4.51,2.74-5.09.58-10.19-5.62-13.68,7.2-26.34,19.73-19.64ZM744.91,501.4c2.74,2.47,2.16,6.11-1.3,8.88-3.6,3.06-7.49,2.18-8.93-1.89-2.88-7.57,4.32-12.37,10.22-6.98ZM569.54,503.73c10.94,5.82,8.21,21.54-3.74,21.54-9.07,0-14.4-7.71-11.09-16.01,2.59-6.26,9.07-8.73,14.83-5.53ZM543.19,506.35c4.32,4.37,5.04,9.46,1.87,14.84-5.76,10.04-20.59,5.53-20.59-6.4,0-9.31,12.38-14.84,18.72-8.44ZM762.76,507.8c4.18,4.66.86,10.48-5.47,9.89-3.89-.44-4.61-1.02-5.04-4.8-.86-7.13,5.76-10.33,10.51-5.09ZM783.35,508.09c2.45,2.47,2.16,8-.58,9.02-6.91,2.76-12.09-1.16-9.5-7.13,1.87-3.93,7.06-4.95,10.08-1.89ZM461.84,515.08c0,4.66-.43,5.09-4.61,5.53-2.59.29-4.75,0-4.9-.73,0-.58-.29-2.33-.58-3.93-.86-4.8.86-6.84,5.62-6.4,4.03.44,4.46.87,4.46,5.53ZM517.99,519.44c2.59,8.44-6.77,13.39-10.8,5.67-2.3-4.22.58-8.59,5.76-8.59,2.88,0,4.46.87,5.04,2.91ZM424.26,537.78c2.74,2.62,2.88,4.07.86,8-2.88,5.38-11.52,2.62-11.52-3.78s6.34-8.59,10.65-4.22ZM370.12,541.56c4.32,4.22,4.32,13.53,0,18.19-4.18,4.51-12.53,4.51-16.7,0-11.81-12.66,4.03-29.98,16.7-18.19ZM399.92,540.69c4.32,4.66,4.61,10.62.72,15.57-5.76,7.42-15.98,6.11-19.44-2.47-5.33-12.95,9.5-23.14,18.72-13.1ZM602.65,559.6l15.98,15.13h23.18c12.81,0,23.61.44,24.05.87,1.87,1.75,20.73,1.46,24.62-.58,5.62-2.62,11.95-1.02,15.69,4.07l3.02,4.22,2.74-3.49c7.92-10.19,23.9-2.47,20.73,10.19-1.44,5.82-3.74,6.11-60.62,7.13l-54.71.87-15.84-14.7c-8.64-8.15-21.02-19.64-27.36-25.46-6.19-5.82-11.09-11.06-10.65-11.5,2.88-2.76,13.1,4.8,33.55,24.3l22.46,21.54h33.84c18.57,0,33.84-.29,33.84-.73,0-5.24-3.74-8-11.09-8-4.18,0-7.63.58-7.63,1.46,0,.73-1.01,1.46-2.16,1.46s-2.16-1.02-2.16-2.18c0-2.47.58-2.33-26.92-2.18l-19.15.15-19.44-17.75c-10.65-9.75-19.44-18.63-19.44-19.5,0-4.66,8.64.87,23.47,14.7ZM607.98,547.96c2.88,1.89,7.92,6.4,11.52,10.04l6.34,6.55h34.99c34.56-.15,34.99-.15,34.99-3.06,0-3.06-.29-3.06-34.56-2.62-29.23.44-34.84.29-36-1.6-3.46-5.67-.86-6.11,43.63-6.11,47.8-.15,48.52,0,48.52,9.75s-.58,10.19-49.96,9.6l-44.2-.44-12.53-11.64c-16.7-15.57-18.14-21.1-2.74-10.48ZM546.07,605.3l.14,51.66,7.49,7.57c6.62,6.98,8.06,7.71,13.53,7.71,6.34,0,7.34,1.16,5.33,6.4-.58,1.6-2.74,2.33-6.19,2.33-4.61,0-6.48-1.31-15.69-10.62l-10.37-10.48v-51.51c0-47.29.14-51.66,2.45-53.4,1.44-1.02,2.74-1.6,2.88-1.46s.43,23.43.43,51.8ZM561.04,576.63l-1.01,22.26,14.25,13.97c7.78,7.71,16.27,15.57,18.57,17.46l4.32,3.49,44.35-.58c36.43-.58,44.2-1.02,44.2-2.62,0-1.75-7.49-2.04-43.48-2.04h-43.63l-15.26-14.41-15.26-14.55-.86-12.81c-.58-6.98-1.44-15.13-1.87-18.19-.72-4.37-.43-5.53,2.16-6.84,4.18-2.33,9.36,2.76,8.21,8.29-.43,2.18-.86,9.02-1.15,15.13l-.43,11.35,10.08,10.33c17.42,17.75,11.66,16.3,61.48,16.01,24.05-.15,44.49-.87,45.93-1.75,10.65-5.67,21.02,9.6,12.53,18.63-3.6,3.93-7.63,4.22-15.69,1.02-5.18-2.18-11.23-2.33-49.82-1.75l-44.06.87-15.84-14.84c-8.64-8-17.57-16.15-19.73-17.9-3.89-3.2-3.89-3.49-4.9-25.61-1.01-25.03-.58-27.21,4.32-27.21h3.46l-.86,22.26ZM534.55,609.81v50.78l14.11,13.82,13.97,13.68,12.67.15c15.12,0,16.41-2.18,6.05-10.77-3.46-2.91-7.49-7.28-8.93-9.6-2.74-4.8-5.18-5.97-3.74-1.89.86,2.33.58,2.33-2.3-.29-2.59-2.18-3.46-2.33-4.32-.87-1.73,2.76-3.46-.58-2.45-4.8,1.73-7.28,12.38-3.78,12.38,3.93,0,2.18.43,2.47,2.02,1.16s4.61.87,14.69,10.62l12.81,12.37,14.11.15c14.83,0,17.85,1.46,14.4,7.13-1.58,2.33-.29,2.33-64.5,1.6-7.06-.15-12.67-3.64-9.36-5.97,1.73-1.31,1.58-1.46-.58-.73s-5.62-1.89-15.55-11.79l-12.67-12.81v-51.95c0-45.4.29-52.24,2.3-54.13,4.46-4.66,4.9-.58,4.9,50.2ZM521.59,607.19c0,46.56-.14,47.58-6.77,47.58-6.19,0-7.63-9.02-1.73-10.91,2.59-.87,2.74-2.76,2.74-39.87s.14-40.89,3.89-40.89c1.44,0,1.87,8.29,1.87,44.09ZM430.45,567.75c7.34,6.98,2.16,20.08-7.78,20.08s-15.26-11.35-8.93-19.5c3.89-4.95,11.81-5.24,16.7-.58ZM450.03,573.14c4.61,4.8,8.21,9.6,8.21,10.77,0,1.02,1.58,3.49,3.46,5.24,9.93,9.46,1.87,27.79-12.38,27.79s-20.3-17.9-8.93-28.37c6.19-5.67,6.19-7.71-.14-15.28-9.93-11.93-1.44-12.08,9.79-.15ZM508.49,620.72c-3.31,4.07-9.93,1.46-9.93-3.93,0-1.31.86-3.2,2.02-4.07,1.58-1.31,2.16-6.4,2.59-19.5.43-15.42.86-18.19,3.31-20.66q2.88-2.91,3.31,21.68c.29,16.88-.14,25.17-1.3,26.48ZM600.78,589.29l12.09,11.64h50.68c32.97,0,52.12-.58,55-1.6,14.11-4.95,21.89,16.73,8.5,23.14-4.61,2.33-11.66.29-13.1-3.49-.72-1.89-8.64-2.18-55-1.89l-54.28.15-6.77-6.69c-3.74-3.64-7.78-6.69-9.21-6.69-3.17,0-4.46-3.78-2.3-6.55,2.59-3.2,6.91-2.62,8.78,1.02,1.01,1.89,4.03,5.38,6.91,8l5.18,4.66,52.27.15c45.35,0,52.12-.29,52.12-2.18s-6.62-2.18-50.54-2.18h-50.39l-9.36-8.29c-6.77-6.26-8.93-9.17-8.35-11.06.86-2.62.58-2.62-2.74-.44-6.19,4.22-11.66-2.33-6.48-7.57,2.88-2.91,4.32-2.04,16.99,9.89ZM563.63,620.57c.86,2.04,2.3,3.64,3.31,3.64.86,0,7.49,5.53,14.69,12.37,12.38,11.64,13.39,12.22,14.83,9.46,1.58-3.06,7.06-3.93,9.5-1.6.72.73,19.01,1.6,40.6,1.89,32.97.29,39.45.73,40.6,2.62,4.61,7.28-3.89,13.53-9.21,6.84l-3.17-3.93h-38.01l-38.16.15,5.76,4.95,5.76,5.09h20.45c12.09,0,20.73-.58,21.31-1.46,2.02-3.2,11.95-1.6,14.97,2.33,8.78,11.35-4.46,27.94-16.13,20.37-2.88-2.04-7.34-2.47-25.49-2.18-23.61.15-22.89.29-31.68-9.02-1.15-1.16-7.78-7.28-14.69-13.53-9.07-8.15-12.24-12.08-11.52-13.68.72-2.04.43-2.18-1.44-.58-5.18,4.22-12.81-3.35-8.06-8.15,3.31-3.35,5.62-1.6,26.06,18.63l20.45,20.37h20.59c19.44,0,20.45-.15,20.45-2.91s-1.01-2.91-18.14-2.91h-18.29l-7.34-6.4c-4.03-3.49-14.25-12.95-22.75-20.95-12.96-11.93-16.13-14.26-19.15-13.68-4.18.73-7.92-1.89-7.92-5.38,0-6.55,9.07-8.29,11.81-2.33ZM498.55,629.3c4.75,5.09,4.46,11.79-.58,16.3-11.23,9.75-25.77-4.37-16.56-16.15,4.03-5.24,12.38-5.24,17.13-.15ZM498.26,660.88c3.02,3.06,2.02,8.29-2.02,10.19-6.05,2.91-11.66-4.95-6.91-9.6,2.59-2.76,6.48-3.06,8.93-.58Z"/><path class="cls-7" d="M357.73,29.66c-1.3,3.2.14,4.95,4.32,4.95,2.74,0,3.46-.73,3.46-3.64,0-4.22-6.19-5.38-7.78-1.31ZM393.15,27.18c-3.02,1.89-1.44,6.69,2.45,7.13,4.18.58,6.19-2.18,4.32-5.82-1.58-2.91-3.74-3.35-6.77-1.31ZM442.82,28.2c-2.74,2.76-1.01,6.55,3.02,6.11,2.74-.29,3.89-1.31,3.89-3.35,0-2.91-4.75-4.8-6.91-2.76ZM506.89,37.8c-2.45,2.47-2.16,6.55.72,7.57,3.46,1.46,7.34-2.91,5.33-5.97-2.02-3.2-3.89-3.78-6.05-1.6ZM472.05,41.01c-1.01,1.31-1.44,3.35-.86,4.51,1.58,4.22,8.64,1.46,7.78-3.06-.58-3.49-4.46-4.22-6.91-1.46ZM559.45,48.57c-.57-1.46-2.59-2.33-5.33-2.33s-4.75.87-5.33,2.33c-1.3,3.49,1.43,7.12,5.33,7.12s6.62-3.63,5.33-7.12ZM554.12,54.25c-.72-.43-1.44-1.46-1.44-2.33,0-.72.73-1.31,1.44-1.31.86,0,1.43,1.03,1.43,2.33,0,1.17-.57,1.75-1.43,1.31ZM499.41,198.74c0,.73,1.01,1.31,2.16,1.31s1.73-.58,1.3-1.31c-.43-.58-1.3-1.16-2.16-1.16-.72,0-1.3.58-1.3,1.16ZM413.3,54.83c-2.88,1.75-1.44,6.69,2.02,7.13,3.6.58,5.76-3.49,3.31-6.4-1.87-2.33-2.74-2.47-5.33-.73ZM409.27,105.18c-1.15,2.76.43,5.09,3.74,5.09,2.74,0,4.9-3.64,3.46-5.97-1.15-2.04-6.34-1.46-7.2.87ZM236.92,138.94c-1.87,1.75-1.01,5.97,1.44,6.84,3.6,1.46,7.2-2.76,4.75-5.53-1.87-2.47-4.61-3.06-6.19-1.31ZM220.08,71.71c-1.58,1.89-1.58,2.76.43,4.66,3.02,3.06,7.06,1.31,6.48-2.76-.58-4.07-4.32-5.09-6.91-1.89ZM270.9,71.85c-.43,1.16.29,3.35,1.58,4.66,3.31,3.35,8.21-1.02,5.18-4.66-2.3-2.91-5.62-2.91-6.77,0ZM455.35,73.16c-1.3,3.35.43,6.55,3.6,6.55s4.61-2.62,2.74-6.26c-1.58-3.06-5.33-3.2-6.34-.29ZM314.24,89.02c-1.3,3.49.58,6.98,3.31,6.4,1.73-.29,2.59-1.75,2.59-4.07,0-4.22-4.61-5.97-5.9-2.33ZM275.37,103.72c-1.15,2.91.58,5.09,3.74,5.09s4.61-1.89,3.46-4.95c-1.15-2.91-6.19-3.06-7.2-.15ZM550.81,90.33c-1.15,3.06,1.15,5.67,4.18,5.09,3.89-.73,3.6-6.11-.29-6.69-1.73-.29-3.46.44-3.89,1.6ZM244.55,93.39c0,3.06.72,3.78,3.74,3.78,4.9,0,4.46-6.26-.43-6.98-2.74-.44-3.31.15-3.31,3.2ZM131.96,160.47c-1.3,3.06-1.3,4.22.58,5.97,4.61,4.66,12.53-2.47,8.35-7.42-2.74-3.35-7.06-2.62-8.93,1.46ZM419.5,148.69c-2.59-1.75-3.45-1.6-6.2.29-6.33,4.51-1.15,10.91,6.2,7.57,4.17-1.89,4.17-4.95,0-7.86ZM418.05,155.37c-.43,0-.72-.29-.72-.72s.29-.72.72-.72.73.29.73.72-.3.72-.73.72ZM158.16,103.72c-2.45,2.91-.72,6.55,2.88,6.55,1.58,0,3.31-1.02,3.74-2.18.86-2.18-1.58-6.55-3.74-6.55-.58,0-1.87,1.02-2.88,2.18ZM656.35,114.63c0,3.78.43,4.37,4.18,4.37,3.31,0,4.46-.87,5.76-4.37l1.44-4.37h-5.76c-5.33,0-5.62.29-5.62,4.37ZM693.21,237.74c-3.02,2.91-2.88,5.38.43,9.46,3.46,4.37,7.78,2.47,8.5-3.64.86-6.98-4.46-10.48-8.93-5.82ZM778.3,263.93c-1.87,1.89-1.01,3.49,2.02,3.49,1.58,0,2.74-.73,2.45-1.75-.72-2.04-3.17-3.06-4.46-1.75ZM752.39,271.35c-1.87,1.75-1.01,5.97,1.44,6.84,3.02,1.16,6.91-2.47,5.76-5.53-.86-2.33-5.47-3.2-7.2-1.31ZM524.89,105.47c-1.87,1.75-1.01,5.97,1.44,6.84,3.6,1.46,7.2-2.76,4.75-5.53-1.87-2.47-4.61-3.06-6.19-1.31ZM612.29,116.67c-1.3,3.49.58,6.98,3.31,6.4,1.73-.29,2.59-1.75,2.59-4.07,0-4.22-4.61-5.97-5.9-2.33ZM321.59,119c-1.58,2.47.72,7.28,3.6,7.28,1.44,0,3.02-1.02,3.46-2.33,1.58-4.37-4.75-8.73-7.06-4.95ZM134.26,128.46c-1.3,3.35.58,6.84,3.31,6.26,4.03-.73,4.32-8.44.43-8.44-1.58,0-3.31,1.02-3.74,2.18ZM709.77,174.01c-1,2.03-.86,3.49.57,5.53,2.59,3.63,7.2,1.01,7.2-3.93,0-4.51-5.61-5.67-7.78-1.59ZM713.95,175.75c-.73,0-1.44-.72-1.44-1.45,0-.88.72-1.46,1.44-1.46.86,0,1.43.58,1.43,1.46,0,.72-.57,1.45-1.43,1.45ZM628.99,141.7c-1.58,1.75-1.44,2.62.58,4.66,2.3,2.33,2.59,2.33,4.46-.29,3.46-4.8-1.44-8.88-5.04-4.37ZM104.03,147.37c-1.15,3.06.29,6.55,2.74,6.55,2.88,0,5.76-3.93,4.75-6.55-1.01-2.76-6.48-2.91-7.49,0ZM680.11,146.65c-1.44,2.47,2.88,6.4,5.76,5.24,1.3-.44,2.16-2.04,1.87-3.35-.58-3.06-6.19-4.37-7.63-1.89ZM758.86,225.52c-4.46,4.51,1.44,11.06,6.19,6.98,2.3-2.04,2.88-7.28.86-7.28-.72,0-2.16-.29-3.31-.73-1.01-.44-2.74,0-3.74,1.02ZM607.39,198.45c-3.17,3.64,1.87,8,5.33,4.66,2.3-2.47.72-6.98-2.45-6.98-.58,0-1.87,1.02-2.88,2.33ZM500.41,253.74c-2.45,2.47-1.01,6.55,2.3,6.11,2.02-.29,3.17-1.46,3.17-3.35,0-2.91-3.6-4.66-5.47-2.76ZM373.71,344.98c-1.15,3.06,1.15,5.67,4.18,5.09,3.89-.73,3.6-6.11-.29-6.69-1.73-.29-3.46.44-3.89,1.6ZM576.29,170.66c-3.17,4.95.43,11.35,6.19,10.62,6.05-.73,8.35-5.67,4.61-10.33-3.74-4.95-7.78-4.95-10.8-.29ZM588.68,180.84c0,.44.29.73.72.73s.72-.29.72-.73-.29-.73-.72-.73-.72.29-.72.73ZM489.33,327.08c0,1.02.43,1.46,1.01,1.02.43-.58.43-1.46,0-2.04-.58-.44-1.01,0-1.01,1.02ZM211.44,167.75c-2.3,2.76-.86,6.55,2.74,6.55,3.31,0,5.04-4.07,2.88-6.69-2.16-2.62-3.46-2.62-5.62.15ZM632.45,173.57c-1.15,2.91.58,5.09,3.74,5.09s4.61-1.89,3.46-4.95c-1.15-2.91-6.19-3.06-7.2-.15ZM635.61,223.19c-2.3,2.18-2.3,2.62-.29,4.8,2.16,2.04,2.59,2.04,4.75-.29,2.3-2.18,2.3-2.62.29-4.8-2.16-2.04-2.59-2.04-4.75.29ZM680.97,331.45c-2.74,1.6-1.3,6.55,2.02,6.55,1.87,0,3.02-1.16,3.31-3.06.43-3.35-2.45-5.38-5.33-3.49ZM389.98,176.77c.14,1.75,4.32,6.98,4.32,5.38,0-.87-.72-2.18-1.73-3.2-1.3-1.31-1.3-1.75,0-1.75.86,0,2.88,1.46,4.61,3.2,1.58,1.75,2.88,2.47,2.88,1.6,0-2.62-4.32-6.26-7.34-6.26-1.44,0-2.74.44-2.74,1.02ZM386.67,230.46c-1.44,1.46-1.3,6.11.29,6.98,2.59,1.6,6.05-.87,5.62-4.07-.43-3.06-4.03-4.8-5.9-2.91ZM232.32,190.45c-2.02,3.2.72,8.59,4.18,8.59,4.32,0,7.06-3.35,5.9-7.28-.86-2.91-5.04-4.22-5.04-1.46,0,.73-1.01,1.46-2.3,1.46-1.15,0-1.73-.73-1.3-1.46.43-.87.58-1.46.14-1.46s-1.15.73-1.58,1.6ZM472.63,193.94c-.58,1.31-.29,3.06.58,3.93,2.3,2.33,6.77.73,6.77-2.47,0-3.78-6.05-4.95-7.34-1.46ZM199.06,298.71c-.58,1.31-.29,3.06.58,3.93,2.3,2.33,6.77.73,6.77-2.47,0-3.78-6.05-4.95-7.34-1.46ZM69.61,204.27c-2.74,2.76-2.3,6.26,1.01,8.29,4.75,3.06,9.36-4.66,5.18-8.88-2.3-2.33-3.31-2.18-6.19.58ZM227.56,343.38c-2.45,2.47-2.16,5.09.72,6.11,3.6,1.46,7.2-2.76,4.75-5.53-2.16-2.76-3.17-2.91-5.47-.58ZM678.38,213c-.43,1.16-.14,2.91.86,3.93,2.02,2.04,6.77-2.18,5.33-4.66-1.44-2.33-5.18-1.89-6.19.73ZM276.95,214.17c-3.46,2.47-1.01,9.6,3.31,9.6,5.9,0,8.21-7.42,3.31-10.19-3.6-1.89-3.31-1.89-6.62.58ZM49.74,234.97c-1.44,1.31-1.15,5.97.29,6.84,2.59,1.6,5.9-.87,5.9-4.37s-3.89-4.95-6.19-2.47ZM209.57,237.88c-1.73,1.75-1.01,5.97,1.01,6.69,2.74,1.02,5.76-2.62,4.61-5.53-.86-2.18-4.03-2.91-5.62-1.16ZM75.66,245.16c-.58.44-1.01,2.18-1.01,3.64,0,4.22,6.34,2.91,6.91-1.46.43-3.2-3.46-4.66-5.9-2.18ZM64,325.48c-.58.87-1.58,1.31-2.16,1.02-.58-.44-.72,1.16-.43,3.49.43,2.76,1.3,3.93,2.59,3.35,2.45-.87,2.74,1.89.29,3.06-1.01.44-.58.73,1.01.44,1.87-.15,3.02-1.6,3.31-3.93.43-4.37-3.02-10.04-4.61-7.42ZM60.26,336.54c0,.44.29.73.72.73s.72-.29.72-.73-.29-.73-.72-.73-.72.29-.72.73ZM301.72,250.83c-1.73,1.75-1.15,6.11.86,6.84,3.02,1.16,5.62-1.16,5.04-4.22-.43-2.76-4.18-4.37-5.9-2.62ZM205.25,266.99c-2.45,2.33-.86,6.26,2.45,6.26,3.6,0,5.18-2.18,4.18-5.53-.72-1.89-5.04-2.47-6.62-.73ZM316.83,442.33c-3.17,3.2-2.02,8.29,2.16,9.31,6.91,1.75,11.52-4.07,6.91-8.73-2.74-2.76-6.62-3.06-9.07-.58ZM328.07,452.95c0,.44.29.73.72.73s.72-.29.72-.73-.29-.73-.72-.73-.72.29-.72.73ZM337.71,474.92c-1.73,1.89-1.15,6.11,1.15,6.98,3.6,1.31,6.62-.73,6.19-4.07-.43-3.06-5.33-4.95-7.34-2.91ZM173.14,271.06c-1.15,3.06.29,6.55,2.74,6.55,1.15,0,2.88-1.02,3.89-2.18,2.02-2.47-.29-6.55-3.89-6.55-1.01,0-2.3,1.02-2.74,2.18ZM387.67,273.97c-.58,1.31-.29,3.06.58,3.93,2.16,2.18,6.34.15,5.76-2.76-.58-3.35-5.18-4.22-6.34-1.16ZM41.54,284.16c-1.58,1.89-1.58,2.76.43,4.66,3.02,3.06,7.06,1.31,6.48-2.76s-4.32-5.09-6.91-1.89ZM789.11,290.99c-2.3,2.33-2.16,7.71.43,9.9,2.74,2.33,6.47,1.46,8.78-2.18,3.75-5.67-4.47-12.52-9.21-7.71ZM793.13,297.98c-4.47,0-5.61-2.47-2.59-5.53,2.02-2.04,1.73-2.04,4.61-.88,4.32,1.6,2.74,6.41-2.02,6.41ZM89.77,291.14c-3.17,2.47-2.02,6.84,2.02,6.84,3.46,0,5.18-4.22,2.59-6.84-1.58-1.6-2.3-1.6-4.61,0ZM624.67,300.89c0,3.49,4.18,5.53,5.76,2.91,1.73-2.76.14-5.82-3.02-5.82-1.73,0-2.74,1.02-2.74,2.91ZM743.46,308.17c-1.15,3.78.86,6.26,4.46,5.53,1.87-.29,2.74-1.75,2.74-4.07,0-4.95-5.76-5.97-7.2-1.46ZM689.03,394.46c-1.15,3.06,1.15,5.67,4.18,5.09,3.89-.73,3.6-6.11-.29-6.69-1.73-.29-3.46.44-3.89,1.6ZM648.29,396.2c-1.15,2.91.58,5.09,3.74,5.09s4.61-1.89,3.46-4.95c-1.15-2.91-6.19-3.06-7.2-.15ZM415.03,329.27c-.58,1.31-.29,3.06.58,3.93,2.16,2.18,6.34.15,5.76-2.76-.58-3.35-5.18-4.22-6.34-1.16ZM644.83,329.27c-1.58,1.89-1.58,2.76.43,4.66,3.02,3.06,7.06,1.31,6.48-2.76-.58-4.07-4.32-5.09-6.91-1.89ZM600.91,332.9c-1.01,1.75.29,4.37,2.3,4.37,1.73,0,1.73-3.93,0-5.09-.72-.44-1.73-.15-2.3.73ZM306.47,374.37c-2.59,3.06-.72,6.84,3.17,6.26,3.74-.44,5.33-5.24,2.3-7.13-2.59-1.75-3.46-1.6-5.47.87ZM433.17,513.92c-1.01,1.31-1.44,3.35-.86,4.51,1.58,4.22,8.64,1.46,7.78-3.06-.58-3.49-4.46-4.22-6.91-1.46ZM280.69,524.69c-2.59,4.95,3.46,8.29,7.06,3.93,1.44-1.75,1.44-2.62,0-4.37-2.45-2.91-5.33-2.76-7.06.44ZM325.62,550.74c-2.59.87-2.3,6.11.29,7.13,2.3.87,6.48-1.75,6.48-3.93,0-1.75-4.75-3.93-6.77-3.2ZM306.47,553.36c0,.44.29.73.72.73s.72-.29.72-.73-.29-.73-.72-.73-.72.29-.72.73ZM757.71,340.76c-1.3,3.49.58,6.98,3.31,6.4,1.73-.29,2.59-1.75,2.59-4.07,0-4.22-4.61-5.97-5.9-2.33ZM719.56,441.31c-.58,2.04-.86,3.06-1.87,5.38-1.87,4.22-.29,7.71,3.6,8.15,7.78.87,9.21-8.88,1.58-10.91-3.46-.87-3.6-1.02-1.01-2.04,2.45-1.02,2.59-1.16.43-1.16-1.44-.15-2.74.15-2.74.58ZM725.46,442.77c0,.44.29.73.72.73s.72-.29.72-.73-.29-.73-.72-.73-.72.29-.72.73ZM729.49,448.59c.29,2.04-.14,4.66-1.15,5.82-1.01,1.31-1.15,2.18-.29,2.18,2.74,0,4.46-9.17,1.87-10.77-.58-.44-.86.87-.43,2.76ZM713.94,447.13c0,.44.29.73.72.73s.72-.29.72-.73-.29-.73-.72-.73-.72.29-.72.73ZM715.38,455.86c0,.44.29.73.72.73s.72-.29.72-.73-.29-.73-.72-.73-.72.29-.72.73ZM817.9,416.14c-2.45,2.47-2.16,5.09.72,6.11,3.6,1.46,7.2-2.76,4.75-5.53-2.16-2.76-3.17-2.91-5.47-.58ZM597.46,447.57c-1.44,2.62.29,6.11,2.88,6.11,2.88,0,5.62-4.66,4.03-6.69-2.3-2.76-5.18-2.47-6.91.58ZM542.6,349.06c0,.73.72,1.02,1.44.58.86-.44,1.44-1.16,1.44-1.6,0-.29-.58-.58-1.44-.58-.72,0-1.44.73-1.44,1.6ZM662.11,359.97c-3.17,3.64,1.87,8,5.33,4.66,2.3-2.47.72-6.98-2.45-6.98-.58,0-1.87,1.02-2.88,2.33ZM710.49,502.72c-1.58,4.07,2.88,7.42,5.76,4.51,1.3-1.31,2.02-3.49,1.58-4.66-1.15-3.06-6.19-2.91-7.34.15ZM342.46,373.65c-1.15,2.18-.86,3.06,1.3,4.37,3.31,1.75,7.78-1.75,6.48-5.09-1.3-3.06-5.9-2.62-7.78.73ZM519.85,381.21c.29,2.18,1.44,3.35,3.31,3.35s3.02-1.16,3.31-3.35c.43-2.62-.14-3.2-3.31-3.2s-3.74.58-3.31,3.2ZM818.62,382.81c-1.15,3.06,1.15,5.67,4.18,5.09,3.89-.73,3.6-6.11-.29-6.69-1.73-.29-3.46.44-3.89,1.6ZM137.29,395.47c-1.15,3.93.14,5.82,4.32,5.82,3.6,0,5.47-3.06,4.18-6.55-1.3-3.2-7.34-2.76-8.5.73ZM261.83,390.53c-3.02,3.64,1.87,8,5.18,4.66,2.74-2.62,1.73-6.98-1.3-6.98-1.15,0-2.88,1.02-3.89,2.33ZM257.8,495.73c-2.88,1.75-1.44,6.69,2.02,7.13,3.6.58,5.76-3.49,3.31-6.4-1.87-2.33-2.74-2.47-5.33-.73ZM207.7,391.84c-.58,1.31-.29,3.06.58,3.93,2.16,2.18,6.34.15,5.76-2.76-.58-3.35-5.18-4.22-6.34-1.16ZM396.03,500.53c-2.45,2.47-2.16,5.09.72,6.11,3.6,1.46,7.2-2.76,4.75-5.53-2.16-2.76-3.17-2.91-5.47-.58ZM533.39,412.35c-1.15,3.06.14,4.95,3.46,4.95,2.74,0,4.32-2.47,3.31-5.53-1.01-2.47-5.76-2.18-6.77.58ZM512.08,421.81c-.58-4.95-6.77-6.25-7.92-1.74-.44,1.74-1.44,3.05-2.45,3.05-.87.15.14,1.01,2.29,2.18,5.18,2.91,8.65,1.45,8.07-3.5ZM508.04,422.39c-.72.45-1.44.15-1.44-.58,0-.87.73-1.59,1.44-1.59.86,0,1.44.29,1.44.58,0,.43-.58,1.16-1.44,1.59ZM420.79,434.03c-.58,1.31-.29,3.06.58,3.93,2.3,2.33,6.77.73,6.77-2.47,0-3.78-6.05-4.95-7.34-1.46ZM802.35,444.22c-1.15,3.06.29,6.55,2.74,6.55,3.02,0,5.47-3.64,4.46-6.4-1.15-2.91-6.19-3.06-7.2-.15ZM673.63,448.44c-3.89,4.8-1.15,8.88,5.76,8.73,9.93-.29,9.93-10.77,0-10.77-2.16,0-4.75,1.02-5.76,2.04ZM677.95,460.95c0,1.89,2.88,1.89,5.76,0,1.73-1.16,1.3-1.46-1.73-1.46-2.3,0-4.03.58-4.03,1.46ZM465.14,455.43c-2.45,2.47-2.16,5.09.58,6.11,2.45.87,6.34-1.31,6.34-3.64s-5.18-4.22-6.91-2.47ZM437.06,461.83c-2.3,2.33-.86,5.09,2.3,4.66,1.73-.29,3.17-1.46,3.17-2.62,0-2.33-3.74-3.64-5.47-2.04ZM804.36,478.56c-4.03,2.33-3.31,8.29,1.01,9.46,7.63,1.89,12.09-3.78,6.62-8.44-3.74-3.06-4.32-3.06-7.63-1.02ZM811.85,490.06c-1.3.87-1.44,1.46-.43,1.46.86,0,2.16-.73,2.59-1.46,1.15-1.75.58-1.75-2.16,0ZM805.08,491.08c.58.44,1.44.44,2.02,0,.43-.58,0-1.02-1.01-1.02s-1.44.44-1.01,1.02ZM563.62,511.16c-2.74,2.76-1.87,5.09,2.02,5.09s5.04-2.76,2.59-5.38c-1.87-1.89-2.45-1.75-4.61.29ZM533.39,514.07c-.43,1.31,0,2.62,1.3,3.06,3.02,1.16,6.77-.44,6.19-2.76-1.01-2.62-6.48-2.91-7.49-.29ZM360.03,547.1c-4.03,4.07.14,8.29,4.9,4.8,2.16-1.6,2.3-2.18.72-4.22-2.3-2.76-3.31-2.91-5.62-.58ZM390.12,545.79c-2.16,2.76-.43,7.13,2.59,6.55,1.3-.29,2.3-1.89,2.3-3.93,0-4.22-2.45-5.38-4.9-2.62ZM693.5,576.93c1.01.44,2.3.29,2.74-.15.58-.44-.29-.87-1.87-.73-1.58,0-2.02.44-.86.87ZM695.66,583.33c-3.74,1.46-4.18,3.2-1.3,5.53,2.59,2.18,6.62.44,6.62-2.76,0-3.64-1.44-4.37-5.33-2.76ZM702.42,582.46c0,.44.29.73.72.73s.72-.29.72-.73-.29-.73-.72-.73-.72.29-.72.73ZM718.84,585.37c-1.15,2.76.43,5.09,3.74,5.09,2.74,0,4.9-3.64,3.46-5.97-1.15-2.04-6.34-1.46-7.2.87ZM703.86,585.37c0,.44.29.73.72.73s.72-.29.72-.73-.29-.73-.72-.73-.72.29-.72.73ZM707.61,591.19c-.43,1.31,0,2.18,1.3,2.18,2.3,0,2.88-2.33.86-3.49-.72-.44-1.58.15-2.16,1.31ZM703.86,559.76c0,2.33.86,3.06,3.74,3.06,4.75,0,4.32-4.8-.58-5.53-2.45-.44-3.17.29-3.17,2.47ZM693.79,629.02c-1.44,1.75-1.44,2.62,0,4.37,2.45,2.91,5.33,2.76,6.9-.43,2.74-5.38-3.02-8.74-6.9-3.93ZM700.26,631.2c-.43,0-.72-.29-.72-.72s.29-.72.72-.72.73.29.73.72-.3.72-.73.72ZM420.79,573.58c-1.01,2.62.14,6.69,1.87,6.69,3.31-.15,5.47-2.91,3.89-5.38-2.16-3.49-4.75-4.07-5.76-1.31ZM446.13,597.01c-4.18,7.86,6.05,14.7,10.94,7.28,2.16-3.35,2.16-3.93,0-7.28-3.02-4.8-8.35-4.8-10.94,0ZM503.73,618.84c0,.44.29.73.72.73s.72-.29.72-.73-.29-.73-.72-.73-.72.29-.72.73ZM719.27,608.36c-1.15,3.2,2.45,7.42,5.33,6.4,3.6-1.46,2.45-7.42-1.44-8-1.73-.29-3.46.44-3.89,1.6ZM654.91,669.18c-1.58,2.91.14,7.13,3.02,7.13,3.02,0,5.62-4.66,4.18-7.42-2.02-3.64-5.18-3.49-7.2.29ZM657.79,679.95c0,.44.29.73.72.73s.72-.29.72-.73-.29-.73-.72-.73-.72.29-.72.73ZM487.31,634.99c-.58,1.46-.29,3.2.43,3.93,2.16,2.18,6.62.44,6.62-2.62,0-3.78-5.76-4.8-7.06-1.31Z"/></g></g><g id="Double_-_dark_border"><g id="UVirtual"><path class="cls-2" d="M853.77,631.55l-.89-.32-2.82-.81h-.77c1.81-8.15,2.86-16.82,3.14-26.01.51-16.5.16-23.29-5.52-29.15-3.31-3.42-7.75-5.3-12.48-5.3-3.99,0-11.36,1.31-15.92,10.05-1.9,3.64-3.12,7.99-4.97,14.59-.83,2.96-2.21,7.9-2.87,9.42-12.01,27.88-39.08,41.43-82.75,41.43-61.4,0-134.05-27.7-162.43-39.61-48.13-20.19-98.37-48.47-146.57-81.49,2.22-2.25,4.22-5.08,5.96-8.51,4.57-8.75,9.78-23.4,11.9-30.64l.29-1.01c1.15-4.04,2.34-8.22,2.27-13.42,0-17.68.01-110.09,0-172.14,14.33,33.27,31.15,72.36,48.26,112.12l1.65,3.83c21.78,50.61,43.9,102.03,61.82,143.58l.62,1.5c4.29,10.39,9.61,19.72,27.34,19.72,1.03,0,2.18-.02,3.51-.06h.12c3.83-.16,8.11-.5,12.14-.99l.91-.12c6.72-.85,17.96-2.28,24.52-11.67l.98-1.4.68-1.57c17.49-40.3,111.18-263.11,126.66-300.92l.69-1.68.32-1.81c1.82-10.29-4.47-19.57-14.95-22.05l-1.17-.28-1.19-.11c-6.23-.58-13.11-.84-22.3-.84-3.97,0-8,.05-11.89.09h-.29c-3.78.05-7.69.1-11.41.1-2.61,0-4.88-.02-6.96-.07h-.17s-2.57.01-2.57.01c-4.79.02-10.21.05-15.52.93-6.38.97-15.17,4.44-21.14,15.38-7.16,12.38-16.92,38.86-29.26,72.35-7.87,21.35-16.44,44.6-24.17,63.26-6.38-15.58-14.15-36.04-21.36-54.98-11.09-29.16-22.55-59.32-30.02-74.88-2.65-5.46-7.59-15.62-19.25-19.97l-.22-.09c-4.32-1.6-9.16-2.47-15.14-2.71-1.96-.1-4.12-.14-6.59-.14-6.17,0-13.29.3-20.23.59-3.69.16-7.37.31-10.87.42-2.14.06-6.9.19-6.9.19-2.39.06-4.75.13-6.87.19-4.2.1-7.6.47-10.66,1.17l-.57.13-.55.16c-1.79.53-3.44,1.29-4.95,2.19-1.35-1.08-2.88-1.98-4.56-2.67l-.13-.05-1.26-.48-.98-.24c-3.03-.76-5.9-.86-8.38-.86,0,0-2.06.01-2.06.01-2.32.05-5.27.07-9.04.07-5.22,0-11.25-.04-17.46-.09-6.69-.05-13.61-.1-20.07-.1-10.58,0-17.69.14-22.37.45l-2.68.18-2.5,1c-7.73,3.08-12.17,10.18-11.88,19.05v.06s-.01.26-.01.26v.55c-.01,21.66,0,65.21,0,107.3,0,38.26.01,71.93,0,90.48-23.03-19.87-44.76-40.46-64.56-61.29,3.3-2.81,5.58-6.9,6.24-11.77l.14-1.02v-1.04c.13-10.36.11-35.5.09-59.82v-1.23c-.01-14.47-.03-28.26,0-37.63v-13.4c0-5.45,0-9.61,0-11.94v-.4s-.02-.46-.02-.46c-.22-8.33-4.41-13-7.89-15.45l-.61-.42-.96-.58-.52-.27c-4.05-2.08-7.83-2.2-9.44-2.25l-.52-.02c-1.27-.02-3.08-.03-5.33-.03h-10.21c-2.7.06-5.63.08-8.96.08-4.76,0-9.69-.05-14.45-.1h-.18c-4.76-.05-9.26-.1-13.58-.1-8.46,0-14.22.2-18.68.65l-3.94.4-3.36,2.09c-5.42,3.37-7.8,7.98-8.88,11.87-5.94-13.15-10.51-25.69-13.64-37.54-7.36-27.87-6.53-50.58,2.48-67.51,15.32-28.81,52.91-34.86,81.75-34.86s65.01,6.19,104.91,18.39c6.99,2.14,22.94,9.1,37.02,15.24,27.11,11.82,38.84,16.72,45.82,17.51,1.42.16,2.7.24,3.91.24,11.41,0,17.31-7.4,18.91-13.74,3.58-14.24-9.4-22.29-18.88-28.18-6.49-4.03-13.46-7.81-15.44-8.88-57.78-31-152.62-62.28-234.25-62.28-11.92,0-23.18.71-33.77,2.09.3-2.12.16-4.07-.12-5.63-1.46-8.21-8.67-14.17-17.15-14.17-2.85,0-5.82.5-17.79,3.47l-.22.06C55.09,49.08,21.83,76.84,8.01,117.73-5.2,156.82.27,206.15,24.27,264.35c17.2,41.72,44.7,88.48,75.46,128.33,10.23,13.15,21.07,24.51,32.6,36.59,5.07,5.31,10.3,10.8,15.41,16.39,4.91,5.35,9.99,10.77,15.16,16.15,0,.04.2.86.2.86,1.9,7.11,3.04,13.6,4.16,19.89,3.86,21.79,7.5,42.38,38.16,66.78,23.96,20.4,46.92,23.6,67.19,26.42,8.89,1.24,18.08,2.52,27.1,5.24l.28.09c1.22.4,3.28,1.08,5.82,1.34,2.5,1.74,4.99,3.46,7.45,5.17,5.59,3.87,11.92,8.26,18.01,12.56,5.9,4.18,12.01,8.63,17.99,12.99,10.8,7.88,21.98,16.02,32.87,23.24l.61.38c75.44,45.57,189.86,101.32,306.6,108.12h.18c6.38.29,12.28.42,18.03.42,27.79,0,51.56-3.36,72.64-10.25,19.41-6.29,37.09-16.17,51.13-28.57,16.31-14.41,27.3-31.56,32.65-50.97l.09-.34c4.35-17.15-7.79-22.7-10.26-23.64Z"/><path class="cls-5" d="M307.93,570.54c-1.6,0-3.1-.5-4.2-.86l-.42-.14c-9.96-3.01-19.67-4.37-29.06-5.68-19.59-2.73-39.85-5.56-61.21-23.8-27.25-21.63-30.22-38.39-33.97-59.61-1.16-6.53-2.35-13.29-4.38-20.89l-.05-.22c-.62-2.82-.23-5.11,1.14-6.81,1.11-1.38,2.77-2.17,4.55-2.17s3.64.83,5.36,2.45l.17.17c36.85,38.08,77.01,72.15,122.79,104.15.96.64,4.7,3.3,5.28,6.71.27,1.6-.11,3.17-1.08,4.43l-.4.49-.43.37c-.77.64-2.11,1.4-4.09,1.4ZM579.02,567.4c-10.72,0-12.73-3.77-16.25-12.3l-.66-1.6c-18.37-42.61-41.18-95.61-63.5-147.48-19.91-46.26-39.43-91.63-55.09-127.96l-5.06-11.76c-.32-.75-.61-1.43-.9-2.08-.64-1.48-1.19-2.76-1.62-3.91-.65-1.81-1.26-4.15-.26-6.56.58-1.4,1.93-3.28,5.06-4.21l.16-.05.16-.04c2.29-.52,4.93-.8,8.31-.88,2.18-.06,4.53-.13,6.91-.19,2.32-.06,4.67-.13,6.93-.19,3.56-.11,7.3-.27,11.04-.42,6.78-.29,13.79-.58,19.71-.58,2.27,0,4.24.04,6.01.13,4.77.2,8.45.82,11.55,1.98l.15.06c7.2,2.66,10.38,9.21,12.71,13.99,7.22,15.06,18.6,44.98,29.6,73.91,12.81,33.7,26.06,68.54,32.59,79.68,10.1-19.4,23.54-55.87,35.41-88.07,11.71-31.77,21.83-59.22,28.47-70.62,2.98-5.52,7.09-8.59,12.56-9.41,4.39-.73,9.12-.76,13.7-.78.76,0,2.42-.01,2.42-.01,2.19.05,4.56.07,7.22.07,3.82,0,7.79-.05,11.64-.09,3.92-.05,7.98-.1,11.95-.1,8.8,0,15.34.24,21.19.79l.35.03.34.08c5.21,1.24,6.47,5.09,5.9,8.29l-.09.53-.21.5c-15.47,37.79-109.09,260.43-126.56,300.68l-.2.47-.29.42c-3.5,5.01-10.54,5.91-16.19,6.63l-.94.12c-3.63.44-7.54.75-11.07.89-1.2.03-2.23.05-3.16.05ZM403.9,518.77c-1.5,0-3-.39-4.45-1.16-13.29-7.22-39.27-27.96-50.25-37.47-3.94-3.54-5.76-5.48-6.8-7.22-1.41-2.33-1.43-4.42-1.44-5.94v-.37c.02-12.56,0-55.98,0-101.95,0-42.08-.02-85.63,0-107.29v-.33c.03-.3.02-.62,0-.99-.05-1.4-.19-5.66,4.32-7.45l.74-.3.8-.05c4.4-.29,11.26-.43,21.58-.43,6.39,0,13.3.05,19.98.1,6.25.05,12.3.09,17.55.09,3.85,0,6.89-.02,9.3-.07h1.88c1.76-.01,3.64.05,5.41.49l.28.07.45.17c1.71.7,3.8,2.31,4.03,6.03v.16s0,.16,0,.16c.03,46.91.03,193.58.02,215.86.06,3.48-.81,6.53-1.82,10.06l-.28,1c-2.05,7.01-7.01,20.75-11.02,28.43-1.25,2.47-4.26,8.41-10.3,8.41h0ZM253.14,385.95c-2.42,0-3.98-1.48-5.23-2.67l-.48-.45-.11-.12c-17.27-18.41-63.13-76.53-71.25-94.32l-.08-.18c-1.78-4.36-1.74-8.45-1.69-12.41.01-1.31.03-2.67-.01-4.08,0,0,0-2.69,0-3.96,0-2.76,0-5.62.04-7.82v-.16s.02-.16.02-.16c.04-.55.06-1.06.08-1.54.08-2.36.21-6.31,4.14-8.75l1-.62,1.17-.12c4.04-.41,9.43-.59,17.48-.59,4.25,0,8.72.05,13.45.1,4.85.05,9.87.11,14.76.11,3.43,0,6.44-.03,9.2-.08h9.98c2.15,0,3.9,0,5.11.02h.34c1.08.05,2.71.1,4.37.95l.16.08.3.18.19.13c2.71,1.91,2.78,4.88,2.81,6,0,.1.02.44.02.44v.15c0,2.35,0,6.66,0,12.31v12.95c-.02,9.36,0,23.16,0,37.64.02,24.8.04,50.44-.08,60.9v.31s-.05.31-.05.31c-.54,4.02-3.36,5.45-5.61,5.45h0Z"/><path class="cls-4" d="M509.86,254.06c5.18,1.92,7.63,6.68,9.97,11.48,15.54,32.38,50.17,133.51,62.55,154.23,3.12,5.35,5.59,4.74,8.51-.2,19.72-37.66,50.6-136.01,63.97-158.88,1.98-3.71,4.6-6.24,8.89-6.87,4.79-.8,10.21-.69,15.27-.74,16.73.36,35.69-.84,51.64.65,1.85.44,2.31,1.2,2.09,2.49-15.48,37.81-109.33,260.98-126.52,300.59-2.37,3.39-8.85,4-13.63,4.63-3.44.42-7.18.72-10.62.86-11.27.32-11-.64-15.2-10.73-34.8-80.72-85.39-198.43-118.61-275.5-1.97-4.59-3.68-8.54-5.06-11.76-.98-2.3-1.86-4.23-2.42-5.74-.44-1.23-.62-2.17-.33-2.87.24-.59.83-1.01,1.83-1.31,2.19-.5,4.65-.69,7.31-.76,4.36-.13,9.29-.25,13.87-.39,12.43-.38,26.9-1.34,36.36-.88,3.5.14,7.04.55,10.03,1.66l.11.04ZM421.31,253.33c-1.71-.42-3.96-.35-5.96-.34-16.27.34-54.14-.63-68.18.3-1.64.65-1,1.98-1.15,4.08-.03,45.1.04,185.15,0,209.17.02,1.45-.05,2.5.73,3.78.76,1.27,2.53,3.08,5.77,5.99,12.1,10.48,37.19,30.23,49.3,36.82,3.96,2.09,6.33-2.02,7.9-5.12,3.64-6.95,8.53-20.24,10.64-27.46,1.06-3.75,1.97-6.61,1.91-9.63.01-21.2.01-167.89-.02-215.9-.05-.78-.13-1.36-.9-1.67l-.04-.02ZM253.09,253.61c-.72-.37-1.61-.36-2.49-.39-2.73-.05-8.12-.01-14.9-.02-19.25.38-42.63-.75-54.48.44-2.07,1.29-1.6,3.38-1.85,6.4-.06,3.14-.03,7.59-.04,11.52.19,5.75-.57,10.11,1.33,14.74,7.58,16.63,52.53,73.98,70.34,92.96,1.58,1.48,2.47,2.52,2.73.57.2-16.65.02-73.5.07-98.48,0-11.96,0-21.32,0-25.25-.05-.89.08-1.93-.68-2.46l-.04-.02ZM308.85,565.17c.65-.84-1.85-3.08-3.03-3.85-44.76-31.29-85.53-65.49-123.59-104.83-2.17-2.04-3.25-1.02-2.64,1.77,8.67,32.52,2.7,50.96,36.68,77.89,30.16,25.82,56.93,18.99,88.56,28.56,1.17.37,3.2,1.17,3.98.52l.05-.06Z"/><path class="cls-10" d="M705.92,706.87c-15.47,0-31.92-1.21-48.87-3.59-49.85-7.01-106.28-25.56-167.75-55.12-58.04-27.92-118.54-65.04-174.95-107.36-120.94-90.72-211.39-194.89-248.15-285.8-26.32-65.09-28.32-114.94-5.92-148.15,20.05-29.74,60.05-45.46,115.65-45.46,79.54,0,172.11,30.56,228.57,60.85,1.9,1.02,8.59,4.65,14.79,8.5,11.5,7.14,14.67,10.66,13.57,15.06-.35,1.4-1.77,4.67-7.27,4.67-.76,0-1.6-.05-2.56-.16-5.48-.62-19.67-6.68-42.37-16.58-15.08-6.58-30.67-13.38-38.31-15.71-41.04-12.55-77.52-18.91-108.42-18.91-46.07,0-78.01,14.26-92.35,41.23-21.03,39.55-4.12,103.58,47.61,180.28,76.53,113.46,232.83,238.08,371.65,296.33,29.05,12.19,103.49,40.54,167.08,40.54,48.31,0,79.85-16.38,93.77-48.68.97-2.25,2.26-6.87,3.4-10.94,3.24-11.56,4.45-15.88,9.33-15.88,1.46,0,2.84.59,3.87,1.65,1.87,1.93,2.64,4.44,2.14,20.43-1.14,37.13-16.03,64.75-44.26,82.08-22.42,13.76-52.78,20.74-90.25,20.74Z"/><path class="cls-3" d="M705.92,706.87c-15.47,0-31.92-1.21-48.87-3.59-49.85-7.01-106.28-25.56-167.75-55.12-58.04-27.92-118.54-65.04-174.95-107.36-120.94-90.72-211.39-194.89-248.15-285.8-26.32-65.09-28.32-114.94-5.92-148.15,20.05-29.74,60.05-45.46,115.65-45.46,79.54,0,172.11,30.56,228.57,60.85,1.9,1.02,8.59,4.65,14.79,8.5,11.5,7.14,14.67,10.66,13.57,15.06-.35,1.4-1.77,4.67-7.27,4.67-.76,0-1.6-.05-2.56-.16-5.48-.62-19.67-6.68-42.37-16.58-15.08-6.58-30.67-13.38-38.31-15.71-41.04-12.55-77.52-18.91-108.42-18.91-46.07,0-78.01,14.26-92.35,41.23-21.03,39.55-4.12,103.58,47.61,180.28,76.53,113.46,232.83,238.08,371.65,296.33,29.05,12.19,103.49,40.54,167.08,40.54,48.31,0,79.85-16.38,93.77-48.68.97-2.25,2.26-6.87,3.4-10.94,3.24-11.56,4.45-15.88,9.33-15.88,1.46,0,2.84.59,3.87,1.65,1.87,1.93,2.64,4.44,2.14,20.43-1.14,37.13-16.03,64.75-44.26,82.08-22.42,13.76-52.78,20.74-90.25,20.74Z"/><path class="cls-9" d="M402.11,126.7c4.12,2.21,37.66,20.41,21.49,18.57-9.5-1.08-62.6-26.85-79.78-32.11-204.97-62.67-277.65,34.1-158.83,210.26,81.04,120.14,240.55,242.22,373.89,298.17,68.02,28.54,227.96,80.88,267.45-10.8,3.97-9.21,10.19-44.26,9.05-6.9-2.99,97.28-103.25,104.83-177.62,94.37-202.54-28.49-509.49-253.82-586.86-445.16C-32.08-1.54,270.17,55.91,402.11,126.7Z"/><path class="cls-3" d="M402.11,126.7c4.12,2.21,37.66,20.41,21.49,18.57-9.5-1.08-62.6-26.85-79.78-32.11-204.97-62.67-277.65,34.1-158.83,210.26,81.04,120.14,240.55,242.22,373.89,298.17,68.02,28.54,227.96,80.88,267.45-10.8,3.97-9.21,10.19-44.26,9.05-6.9-2.99,97.28-103.25,104.83-177.62,94.37-202.54-28.49-509.49-253.82-586.86-445.16C-32.08-1.54,270.17,55.91,402.11,126.7Z"/><path class="cls-11" d="M707.53,733.32c-5.57,0-11.3-.13-17.51-.4-114.29-6.66-226.81-61.55-301.09-106.42l-.18-.11c-10.69-7.09-21.78-15.17-32.5-22.99-5.95-4.34-12.1-8.82-18.05-13.03-6.03-4.27-12.17-8.52-18.11-12.64-7.72-5.35-15.7-10.88-23.49-16.47-49.87-34.91-95.68-75.39-140.01-123.71-5.2-5.69-10.49-11.24-15.62-16.61-11.27-11.81-21.91-22.96-31.76-35.63-30.12-39.01-57.03-84.76-73.84-125.53-22.85-55.44-28.23-101.94-15.98-138.21,12.45-36.85,42.94-62,90.61-74.77,10.58-2.62,13.39-3.12,14.9-3.12,3.14,0,4.97,2.21,5.33,4.27.76,4.27-3.2,5.94-5.82,7.04-2.05.86-5.11,2.04-9.38,3.61-34.57,13.04-57.53,34.61-68.19,64.08-23.47,64.87,17.15,147.98,35.7,180.7,53.04,96.81,136.7,170.56,225.01,243.8,3.09,2.58,6.54,4.95,9.88,7.25,1.63,1.12,3.32,2.28,4.91,3.43,101.33,72.39,263.05,156.94,385.26,156.94,30.89,0,58.34-5.35,81.56-15.9,19.77-9.11,35.87-24.65,49.18-47.49l.07-.11c1.06-1.71,1.81-2.89,2.46-3.84,1.79-2.65,3.66-5.03,6.74-5.03h.75l.86.25.29.1c4.82,1.83,3.37,7.58,2.89,9.47l-.03.1c-4.72,17.12-14.49,32.32-29.03,45.16-12.81,11.31-29.02,20.36-46.88,26.15-19.88,6.5-42.44,9.67-68.94,9.67Z"/><path class="cls-3" d="M707.53,733.32c-5.57,0-11.3-.13-17.51-.4-114.29-6.66-226.81-61.55-301.09-106.42l-.18-.11c-10.69-7.09-21.78-15.17-32.5-22.99-5.95-4.34-12.1-8.82-18.05-13.03-6.03-4.27-12.17-8.52-18.11-12.64-7.72-5.35-15.7-10.88-23.49-16.47-49.87-34.91-95.68-75.39-140.01-123.71-5.2-5.69-10.49-11.24-15.62-16.61-11.27-11.81-21.91-22.96-31.76-35.63-30.12-39.01-57.03-84.76-73.84-125.53-22.85-55.44-28.23-101.94-15.98-138.21,12.45-36.85,42.94-62,90.61-74.77,10.58-2.62,13.39-3.12,14.9-3.12,3.14,0,4.97,2.21,5.33,4.27.76,4.27-3.2,5.94-5.82,7.04-2.05.86-5.11,2.04-9.38,3.61-34.57,13.04-57.53,34.61-68.19,64.08-23.47,64.87,17.15,147.98,35.7,180.7,53.04,96.81,136.7,170.56,225.01,243.8,3.09,2.58,6.54,4.95,9.88,7.25,1.63,1.12,3.32,2.28,4.91,3.43,101.33,72.39,263.05,156.94,385.26,156.94,30.89,0,58.34-5.35,81.56-15.9,19.77-9.11,35.87-24.65,49.18-47.49l.07-.11c1.06-1.71,1.81-2.89,2.46-3.84,1.79-2.65,3.66-5.03,6.74-5.03h.75l.86.25.29.1c4.82,1.83,3.37,7.58,2.89,9.47l-.03.1c-4.72,17.12-14.49,32.32-29.03,45.16-12.81,11.31-29.02,20.36-46.88,26.15-19.88,6.5-42.44,9.67-68.94,9.67Z"/><path class="cls-6" d="M847.72,647.5c.4.15.3,1.41-.22,3.49-9.41,34.11-39.73,57.19-72.59,67.84-27.43,8.97-56.28,10.25-84.67,9.02-104.07-6.07-212.75-53.78-298.69-105.69-16.54-10.97-33.8-24.16-50.42-35.94-13.91-9.84-27.85-19.23-41.58-29.08-51.09-35.77-96.89-76.87-139.23-123.02-16.27-17.81-32.83-33.56-47.12-51.92-70.48-91.27-172.19-284.92-1.89-330.52,15.83-3.92,20.39-4.6,1.99,2.17C-2.23,97.44,31.13,222.97,78.15,305.88c54.32,99.14,140.43,174.08,226.18,245.2,4.82,4.03,10.33,7.47,15.06,10.89,110.03,78.61,337.45,202.63,471.88,141.54,22.81-10.51,39-28.17,51.46-49.55.85-1.38,1.65-2.64,2.34-3.66,1.28-1.89,2.21-2.93,2.63-2.8h.03Z"/><path class="cls-3" d="M847.72,647.5c.4.15.3,1.41-.22,3.49-9.41,34.11-39.73,57.19-72.59,67.84-27.43,8.97-56.28,10.25-84.67,9.02-104.07-6.07-212.75-53.78-298.69-105.69-16.54-10.97-33.8-24.16-50.42-35.94-13.91-9.84-27.85-19.23-41.58-29.08-51.09-35.77-96.89-76.87-139.23-123.02-16.27-17.81-32.83-33.56-47.12-51.92-70.48-91.27-172.19-284.92-1.89-330.52,15.83-3.92,20.39-4.6,1.99,2.17C-2.23,97.44,31.13,222.97,78.15,305.88c54.32,99.14,140.43,174.08,226.18,245.2,4.82,4.03,10.33,7.47,15.06,10.89,110.03,78.61,337.45,202.63,471.88,141.54,22.81-10.51,39-28.17,51.46-49.55.85-1.38,1.65-2.64,2.34-3.66,1.28-1.89,2.21-2.93,2.63-2.8h.03Z"/></g></g></svg>